<svg width="49" height="48" viewBox="0 0 49 48" fill="none" xmlns="http://www.w3.org/2000/svg">
    <path d="M9.36624 8.16924C5.56578 10.3634 3.22461 14.4185 3.22461 18.8069L3.22461 29.1918C3.22461 33.5802 5.56578 37.6353 9.36624 39.8295L18.3571 45.0203C22.1573 47.2144 26.8393 47.2146 30.6396 45.0208L39.6331 39.8293C43.434 37.6352 45.7755 33.5799 45.7755 29.1912L45.7755 18.8075C45.7755 14.4188 43.434 10.3635 39.6331 8.16939L30.6396 2.9779C26.8393 0.784121 22.1573 0.784293 18.3571 2.97835L9.36624 8.16924Z" fill="#0AC18E"/>
    <path fill-rule="evenodd" clip-rule="evenodd" d="M16.0887 18.8298L19.0315 18.0412L18.504 16.0725L20.1378 15.6348L20.6653 17.6034L21.8729 17.2799L21.3454 15.3112L22.9589 14.8789L23.4864 16.8475L24.1866 16.6599C26.4116 16.0637 28.6986 17.3841 29.2948 19.6091C29.5669 20.6245 29.4398 21.6528 29.0097 22.5274C30.3661 22.8663 31.5028 23.9116 31.8903 25.3577C32.4587 27.479 31.1998 29.6595 29.0785 30.2279L27.1885 30.7343L27.7078 32.6725L26.0918 33.1055L25.5724 31.1673L24.3838 31.4858L24.9032 33.424L23.2808 33.8587L22.7615 31.9205L19.8287 32.7063L19.304 30.7478L21.2828 30.2176L20.2469 26.3514L20.2467 26.3515L18.6118 20.2498L16.6127 20.7854L16.0887 18.8298ZM21.1944 19.5523L23.9174 18.8227C23.9174 18.8227 26.059 18.2488 26.5745 20.1728C27.0901 22.0968 24.9485 22.6706 24.9485 22.6706L22.2255 23.4002L21.1944 19.5523ZM26.0148 24.4551L22.7429 25.3318L23.8664 29.5247L27.1383 28.648C27.1383 28.648 29.7115 27.9585 29.1498 25.8621C28.588 23.7656 26.0148 24.4551 26.0148 24.4551Z" fill="white"/>
</svg>