<svg width="49" height="48" viewBox="0 0 49 48" fill="none" xmlns="http://www.w3.org/2000/svg">
    <path d="M9.36624 8.16924C5.56578 10.3634 3.22461 14.4185 3.22461 18.8069L3.22461 29.1918C3.22461 33.5802 5.56578 37.6353 9.36624 39.8295L18.3571 45.0203C22.1573 47.2144 26.8393 47.2146 30.6396 45.0208L39.6331 39.8293C43.434 37.6352 45.7755 33.5799 45.7755 29.1912L45.7755 18.8075C45.7755 14.4188 43.434 10.3635 39.6331 8.16939L30.6396 2.97789C26.8393 0.784116 22.1573 0.78429 18.3571 2.97835L9.36624 8.16924Z" fill="#F7931A"/>
    <path fill-rule="evenodd" clip-rule="evenodd" d="M19.8001 15.318L22.743 16.1066L23.2705 14.1379L24.9043 14.5757L24.3768 16.5444L25.5844 16.8679L26.1119 14.8993L27.7254 15.3316L27.1979 17.3003L27.8981 17.4879C30.1231 18.0841 31.4435 20.3711 30.8473 22.5961C30.5752 23.6115 29.9509 24.4386 29.1411 24.981C30.1462 25.9526 30.6079 27.4262 30.2204 28.8723C29.652 30.9936 27.4716 32.2524 25.3503 31.684L23.4603 31.1776L22.9409 33.1158L21.3249 32.6828L21.8442 30.7446L20.6557 30.4261L20.1363 32.3644L18.5139 31.9296L19.0333 29.9914L16.1006 29.2056L16.6254 27.2471L18.6042 27.7773L20.1378 22.0539L20.1379 22.0539L21.2752 17.8094L19.2761 17.2737L19.8001 15.318ZM23.8605 18.4958L26.5836 19.2255C26.5836 19.2255 28.7251 19.7993 28.2096 21.7233C27.6941 23.6472 25.5525 23.0734 25.5525 23.0734L22.8295 22.3438L23.8605 18.4958ZM25.5839 25.152L22.312 24.2753L21.1885 28.4683L24.4604 29.345C24.4604 29.345 27.0337 30.0345 27.5954 27.938C28.1572 25.8415 25.5839 25.152 25.5839 25.152Z" fill="white"/>
</svg>