<svg width="49" height="48" viewBox="0 0 49 48" fill="none" xmlns="http://www.w3.org/2000/svg">
    <path d="M9.36605 8.1694C5.56556 10.3636 3.22436 14.4187 3.22436 18.8071L3.22436 29.1922C3.22436 33.5806 5.56556 37.6357 9.36605 39.8299L18.357 45.0208C22.1572 47.2149 26.8392 47.2151 30.6396 45.0213L39.6331 39.8297C43.4341 37.6356 45.7756 33.5803 45.7756 29.1915L45.7756 18.8077C45.7756 14.419 43.4341 10.3636 39.6331 8.16955L30.6396 2.978C26.8392 0.784209 22.1572 0.784381 18.357 2.97846L9.36605 8.1694Z" fill="#C2A633"/>
    <path fill-rule="evenodd" clip-rule="evenodd" d="M18.827 15.75H24.9388C27.3756 15.8499 32.2494 17.649 32.2494 24.0463C32.2494 30.4437 27.3674 32.181 24.9264 32.25H18.827V24.9671H16.7505V23.1379H18.827V15.75ZM21.9892 18.8984H24.9431C26.3274 18.9767 29.0959 20.1171 29.0959 24.0524C29.0959 27.9877 26.3274 29.0621 24.9431 29.1074H21.9892V24.9546H25.3386V23.1501H21.9892V18.8984Z" fill="white"/>
</svg>
