<svg width="49" height="48" viewBox="0 0 49 48" fill="none" xmlns="http://www.w3.org/2000/svg">
    <path d="M9.26663 8.51055C5.46617 10.7048 3.125 14.7598 3.125 19.1482L3.125 29.5331C3.125 33.9215 5.46617 37.9766 9.26663 40.1708L18.2575 45.3617C22.0577 47.5557 26.7397 47.5559 30.54 45.3621L39.5335 40.1706C43.3344 37.9765 45.6759 33.9212 45.6759 29.5325L45.6759 19.1488C45.6759 14.7601 43.3344 10.7048 39.5335 8.5107L30.54 3.31921C26.7397 1.12543 22.0577 1.1256 18.2575 3.31966L9.26663 8.51055Z" fill="#5B8F75"/>
    <path fill-rule="evenodd" clip-rule="evenodd" d="M24.5279 20.377L17.8953 23.1729L24.5177 13.0913L30.9565 23.2444L24.5279 20.377ZM24.5381 30.1117L17.9157 26.275L24.5994 35.5913L31.2932 26.275L24.5381 30.1117ZM17.6504 24.6522L24.5586 21.7441L31.2728 24.7338L24.5586 28.4889L17.6504 24.6522Z" fill="white"/>
</svg>