<svg width="49" height="48" viewBox="0 0 49 48" fill="none" xmlns="http://www.w3.org/2000/svg">
    <path d="M9.04153 8.43584C5.24108 10.63 2.8999 14.6851 2.8999 19.0735L2.8999 29.4584C2.8999 33.8468 5.24108 37.9019 9.04153 40.0961L18.0324 45.287C21.8326 47.481 26.5146 47.4812 30.3149 45.2874L39.3084 40.0959C43.1093 37.9018 45.4508 33.8465 45.4508 29.4578L45.4508 19.0741C45.4508 14.6854 43.1093 10.6301 39.3084 8.43599L30.3149 3.24449C26.5146 1.05072 21.8326 1.05089 18.0324 3.24495L9.04153 8.43584Z" fill="#5E6072"/>
    <path fill-rule="evenodd" clip-rule="evenodd" d="M17.3 24.2644L24.3279 12.8008L31.3558 24.2644C29.0958 25.5576 24.3279 28.4404 24.3279 28.4404C24.3279 28.4404 19.5601 25.5576 17.3 24.2644Z" fill="white"/>
    <path fill-rule="evenodd" clip-rule="evenodd" d="M17.4384 25.6211L24.3279 29.7239V35.3786L17.4384 25.6211ZM31.2177 25.6211L24.3282 29.724V35.3786L31.2177 25.6211Z" fill="white"/>
</svg>
