<svg width="49" height="48" viewBox="0 0 49 48" fill="none" xmlns="http://www.w3.org/2000/svg">
    <path d="M9.36624 8.16924C5.56578 10.3634 3.22461 14.4185 3.22461 18.8069L3.22461 29.1918C3.22461 33.5802 5.56578 37.6353 9.36624 39.8295L18.3571 45.0203C22.1573 47.2144 26.8393 47.2146 30.6396 45.0208L39.6331 39.8293C43.434 37.6352 45.7755 33.5799 45.7755 29.1912L45.7755 18.8075C45.7755 14.4188 43.434 10.3635 39.6331 8.16939L30.6396 2.97789C26.8393 0.784118 22.1573 0.784289 18.3571 2.97835L9.36624 8.16924Z" fill="#345D9D"/>
    <path d="M27.0653 13.5996H22.986L20.2202 23.1227L17.878 23.8455L17.3 25.8041L19.6457 25.088L17.5856 31.9996H30.7074L31.7 28.5688H22.6983L24.1057 23.7323L26.5227 22.9895L27.0972 21.0276L24.6836 21.747L27.0653 13.5996Z" fill="white"/>
</svg>
