<svg width="49" height="48" viewBox="0 0 49 48" fill="none" xmlns="http://www.w3.org/2000/svg">
    <path d="M9.26663 8.15069C5.46617 10.3449 3.125 14.3999 3.125 18.7883L3.125 29.1733C3.125 33.5617 5.46617 37.6167 9.26663 39.8109L18.2575 45.0018C22.0577 47.1959 26.7397 47.196 30.54 45.0023L39.5335 39.8108C43.3344 37.6167 45.6759 33.5614 45.6759 29.1727L45.6759 18.7889C45.6759 14.4002 43.3344 10.3449 39.5335 8.15084L30.54 2.95934C26.7397 0.765567 22.0577 0.765739 18.2575 2.9598L9.26663 8.15069Z" fill="#00CA95"/>
    <path d="M15.0254 16.7262V31.2805L24.3762 34.6699V19.9887L34.4616 16.2368L25.3078 12.9199L15.0254 16.7262Z" fill="white"/>
    <path d="M25.2063 20.6042V28.5009L34.4616 31.893V17.0845L25.2063 20.6042Z" fill="white"/>
</svg>
