<svg width="49" height="48" viewBox="0 0 49 48" fill="none" xmlns="http://www.w3.org/2000/svg">
    <path d="M9.36624 8.16924C5.56578 10.3634 3.22461 14.4185 3.22461 18.8069L3.22461 29.1918C3.22461 33.5802 5.56578 37.6353 9.36624 39.8295L18.3571 45.0203C22.1573 47.2144 26.8393 47.2146 30.6396 45.0208L39.6331 39.8293C43.434 37.6352 45.7755 33.5799 45.7755 29.1912L45.7755 18.8075C45.7755 14.4188 43.434 10.3635 39.6331 8.16939L30.6396 2.9779C26.8393 0.784121 22.1573 0.784293 18.3571 2.97835L9.36624 8.16924Z" fill="#B7373A"/>
    <path d="M22.933 34.6248C20.315 28.0005 17.6574 21.4158 15.0394 14.7915C15.198 14.8312 15.2774 14.8312 15.3964 14.8708C16.4277 15.0692 17.4194 15.2278 18.4507 15.4262C19.4027 15.5848 20.3944 15.7832 21.3464 15.9418C22.457 16.1402 23.5677 16.3385 24.6784 16.5765C25.7494 16.7748 26.86 16.9732 27.9707 17.1715C28.645 17.2905 29.3194 17.4095 29.9937 17.5682C30.0731 17.5682 30.1127 17.6078 30.192 17.6475C31.4217 18.7978 32.6117 19.9482 33.8414 21.0985C34.0001 21.2572 34.0001 21.2572 33.8414 21.4158C32.6117 22.8835 31.4217 24.3908 30.192 25.8585C29.2004 27.0485 28.2484 28.2385 27.2567 29.4285C25.908 31.0548 24.5991 32.6812 23.2504 34.3075C23.1314 34.4265 23.052 34.5058 22.933 34.6248ZM22.8934 31.6895H22.933C22.933 31.6102 22.9727 31.4912 22.9727 31.4118C23.0124 31.1342 23.052 30.8565 23.0917 30.5788C23.2504 29.4285 23.3694 28.2782 23.528 27.1278C23.6867 25.7792 23.8454 24.4305 24.0437 23.0818C24.0437 22.9628 24.0437 22.8835 23.9247 22.8042C22.9727 22.0108 21.9811 21.2175 21.029 20.3845C19.958 19.4722 18.8474 18.5598 17.7764 17.6872C17.578 17.5285 17.4194 17.3698 17.221 17.2508C17.221 17.2508 17.1814 17.2508 17.1814 17.2905C19.0457 22.0108 20.9497 26.8502 22.8934 31.6895ZM31.9374 22.0902V22.0505C31.858 22.0505 31.8184 22.0505 31.739 22.0505C30.7077 22.2488 29.6367 22.4075 28.6054 22.6058C27.4551 22.8042 26.3047 23.0422 25.1544 23.2405C25.075 23.2405 25.0354 23.2802 25.0354 23.3992C24.9957 23.6768 24.9561 23.9545 24.9164 24.2718C24.7577 25.6205 24.599 27.0088 24.4007 28.3575C24.2817 29.2302 24.2024 30.1028 24.0834 30.9755C24.0437 31.2135 24.0437 31.4118 24.0041 31.6498C24.0041 31.6498 24.0437 31.6498 24.0437 31.6895C26.6617 28.5162 29.2797 25.3032 31.9374 22.0902ZM28.6847 18.4408C28.6451 18.4012 28.6451 18.4012 28.6054 18.3615C25.0354 17.7268 21.505 17.0525 17.935 16.4178V16.4575C17.9747 16.4972 17.9747 16.5368 18.0144 16.5368C18.5697 17.0128 19.1251 17.4492 19.6804 17.9252C20.5531 18.6392 21.4257 19.3532 22.2984 20.0672C23.0124 20.6622 23.6867 21.2175 24.4007 21.8125C24.4801 21.8918 24.5594 21.8918 24.6387 21.8125C24.8767 21.5745 25.1544 21.3762 25.432 21.1382C26.4634 20.2655 27.4947 19.4325 28.526 18.5598C28.5657 18.4805 28.6054 18.4805 28.6847 18.4408ZM32.1357 20.9398C32.0961 20.9002 32.0961 20.8605 32.0564 20.8605C31.3424 20.1862 30.6284 19.5118 29.9144 18.8375C29.835 18.7582 29.7954 18.7978 29.7161 18.8375C28.4864 19.8688 27.2567 20.9002 26.0271 21.9315C25.9874 21.9712 25.908 22.0108 25.8684 22.0108C25.8684 22.0505 25.9081 22.0505 25.9081 22.0902C27.9707 21.6935 30.0334 21.3365 32.1357 20.9398Z" fill="white"/>
</svg>
