<svg width="49" height="48" viewBox="0 0 49 48" fill="none" xmlns="http://www.w3.org/2000/svg">
    <path d="M9.36624 8.16924C5.56578 10.3634 3.22461 14.4185 3.22461 18.8069L3.22461 29.1918C3.22461 33.5802 5.56578 37.6353 9.36624 39.8295L18.3571 45.0203C22.1573 47.2144 26.8393 47.2146 30.6396 45.0208L39.6331 39.8293C43.434 37.6352 45.7755 33.5799 45.7755 29.1912L45.7755 18.8075C45.7755 14.4188 43.434 10.3635 39.6331 8.16939L30.6396 2.97789C26.8393 0.784118 22.1573 0.784289 18.3571 2.97835L9.36624 8.16924Z" fill="#00A478"/>
    <path d="M31.85 15.199H17.4977V18.6505H31.85V15.199Z" fill="white"/>
    <path d="M33.2598 21.6705C33.0872 21.5411 32.9146 21.4117 32.6989 21.3254C32.3106 21.1528 31.9655 21.0234 31.5772 20.9371C30.8006 20.7213 30.0671 20.6351 29.2905 20.5056C28.5139 20.4193 27.7373 20.3762 26.9607 20.333C26.745 20.333 26.5724 20.333 26.3567 20.2899V18.6504H22.9051V20.2899C21.956 20.333 20.9636 20.3762 20.0145 20.5056C19.2379 20.5919 18.4613 20.7213 17.7278 20.9371C17.3395 21.0234 16.9512 21.1528 16.606 21.3254C16.4335 21.4117 16.2177 21.4979 16.0452 21.6705C15.8726 21.8 15.7 22.0588 15.7 22.3608C15.7 22.6628 15.8726 22.9217 16.0452 23.0511C16.2177 23.2237 16.3903 23.31 16.5629 23.4394C16.9081 23.6552 17.2964 23.7846 17.6847 23.914C18.4613 24.1729 19.1947 24.3023 19.9713 24.4318C20.9636 24.6043 21.9128 24.6906 22.9051 24.7338V32.799H26.3567V24.7338C27.349 24.6906 28.2982 24.6043 29.2905 24.4318C30.0671 24.3023 30.8437 24.1298 31.5772 23.914C31.9655 23.7846 32.3106 23.6552 32.6989 23.4394C32.8715 23.3532 33.0441 23.2237 33.2167 23.0511C33.3892 22.8786 33.5618 22.6628 33.5618 22.3608C33.6481 22.0588 33.4324 21.8431 33.2598 21.6705ZM32.4832 22.9217C32.1812 23.0943 31.7929 23.1806 31.4477 23.2669C30.7143 23.4394 29.9808 23.5689 29.2474 23.6552C28.5139 23.7415 27.7373 23.7846 26.9607 23.8277C26.1841 23.8709 25.4507 23.914 24.6741 23.914C23.164 23.914 21.6108 23.8709 20.1439 23.6552C19.4104 23.5689 18.6338 23.4394 17.9435 23.2669C17.5984 23.1806 17.2101 23.0511 16.9081 22.9217C16.5629 22.7923 16.2609 22.5334 16.2609 22.3608C16.2609 22.2745 16.304 22.1883 16.4335 22.0588C16.5629 21.9294 16.6923 21.8431 16.8649 21.7568C17.1669 21.5842 17.5121 21.4548 17.9004 21.3254C18.6338 21.1096 19.3673 20.9371 20.1007 20.8076C21.0499 20.6782 21.9991 20.5919 22.9483 20.5056V23.5257H26.3998V20.5056C26.5724 20.5056 26.7881 20.5056 26.9607 20.5488C27.7373 20.5919 28.4708 20.7213 29.2474 20.8076C29.9808 20.9371 30.7574 21.1096 31.4477 21.3254C31.7929 21.4548 32.1381 21.5842 32.4832 21.7568C32.6558 21.8431 32.7852 21.9294 32.9146 22.0588C33.0441 22.1883 33.0872 22.2745 33.0872 22.3608C33.0872 22.5334 32.7852 22.7491 32.4832 22.9217Z" fill="white"/>
</svg>