<svg width="49" height="48" viewBox="0 0 49 48" fill="none" xmlns="http://www.w3.org/2000/svg">
    <path d="M9.36624 8.16924C5.56578 10.3634 3.22461 14.4185 3.22461 18.8069L3.22461 29.1918C3.22461 33.5802 5.56578 37.6353 9.36624 39.8295L18.3571 45.0203C22.1573 47.2144 26.8393 47.2146 30.6396 45.0208L39.6331 39.8293C43.434 37.6352 45.7755 33.5799 45.7755 29.1912L45.7755 18.8075C45.7755 14.4188 43.434 10.3635 39.6331 8.16939L30.6396 2.97789C26.8393 0.784118 22.1573 0.784289 18.3571 2.97835L9.36624 8.16924Z" fill="#4098E6"/>
    <path fill-rule="evenodd" clip-rule="evenodd" d="M34.8614 15.1997H31.853L27.0982 19.935C25.6632 21.364 23.3368 21.364 21.9019 19.935L17.1471 15.1997H14.1387L20.3977 21.433C22.6633 23.6894 26.3367 23.6894 28.6024 21.433L34.8614 15.1997ZM14.1001 32.5327H17.1085L21.9019 27.7589C23.3368 26.3298 25.6633 26.3298 27.0982 27.7589L31.8917 32.5327H34.9001L28.6025 26.2609C26.3368 24.0045 22.6634 24.0045 20.3977 26.2609L14.1001 32.5327Z" fill="white"/>
</svg>
