<svg width="49" height="48" viewBox="0 0 49 48" fill="none" xmlns="http://www.w3.org/2000/svg">
    <path d="M9.2667 8.37787C5.46621 10.5721 3.12501 14.6272 3.12501 19.0156L3.12501 29.4006C3.12501 33.7891 5.46621 37.8442 9.2667 40.0384L18.2576 45.2293C22.0578 47.4234 26.7399 47.4236 30.5403 45.2298L39.5338 40.0382C43.3347 37.8441 45.6763 33.7888 45.6763 29.4L45.6763 19.0162C45.6763 14.6275 43.3347 10.5721 39.5338 8.37802L30.5403 3.18648C26.7399 0.992682 22.0578 0.992858 18.2576 3.18693L9.2667 8.37787Z" fill="#F3A03A"/>
    <path d="M18.8337 19.3317H26.077L18.7139 29.8588V31.5884H22.98V33.75H25.9059V31.5884H30.1721V28.6711H23.1126L30.2861 18.4249V16.423H26.02V14.25H23.0998V16.423H18.8337V19.3317Z" fill="white"/>
</svg>