<svg width="325" height="104" viewBox="0 0 325 104" fill="none" xmlns="http://www.w3.org/2000/svg">
<path d="M244.338 11.5322C244.194 11.5314 244.056 11.4792 243.947 11.385C243.838 11.2907 243.767 11.1607 243.746 11.0184C243.567 9.79215 242.856 8.79259 241.794 8.27737C240.664 7.72901 239.292 7.80358 238.123 8.47698C238.054 8.52571 237.976 8.55959 237.894 8.57645C237.812 8.59331 237.727 8.59277 237.645 8.57487C237.563 8.55697 237.485 8.52211 237.417 8.47252C237.349 8.42293 237.293 8.35971 237.251 8.28691C237.209 8.21412 237.183 8.13336 237.174 8.04982C237.165 7.96628 237.174 7.8818 237.199 7.80182C237.225 7.72183 237.267 7.6481 237.323 7.58536C237.379 7.52262 237.447 7.47226 237.524 7.4375C239.038 6.56524 240.83 6.4756 242.318 7.19796C243.743 7.8902 244.696 9.21969 244.933 10.846C244.954 11.003 244.913 11.1622 244.818 11.2891C244.723 11.416 244.582 11.5004 244.425 11.5239C244.396 11.5289 244.367 11.5316 244.338 11.5322Z" fill="white"/>
<path d="M241.958 12.2417C241.432 12.2433 240.911 12.1496 240.419 11.9653C239.39 11.5781 238.008 10.5997 237.251 8.13277C237.219 8.05522 237.204 7.97185 237.206 7.88799C237.208 7.80413 237.227 7.72163 237.263 7.64577C237.299 7.56992 237.35 7.50237 237.414 7.44746C237.477 7.39255 237.551 7.35148 237.632 7.32689C237.712 7.3023 237.796 7.29472 237.879 7.30465C237.963 7.31457 238.043 7.34178 238.115 7.38452C238.187 7.42727 238.25 7.48461 238.299 7.55288C238.347 7.62116 238.381 7.69885 238.398 7.781C238.883 9.36282 239.729 10.4234 240.841 10.8422C241.829 11.2151 242.99 11.0614 244.025 10.4219C244.159 10.3557 244.314 10.342 244.458 10.3834C244.602 10.4248 244.725 10.5183 244.804 10.6458C244.883 10.7733 244.911 10.9255 244.884 11.0729C244.856 11.2202 244.775 11.352 244.656 11.4425C243.848 11.9541 242.914 12.2308 241.958 12.2417Z" fill="white"/>
<path d="M239.136 16.0712C238.999 16.0705 238.867 16.0236 238.761 15.9381C238.654 15.8526 238.58 15.7335 238.55 15.6004C238.302 14.4705 237.746 13.6841 236.893 13.2555C235.799 12.7026 234.296 12.799 232.662 13.5259C232.519 13.5741 232.364 13.5674 232.226 13.5071C232.089 13.4468 231.979 13.3372 231.918 13.1999C231.857 13.0625 231.849 12.9074 231.897 12.7648C231.944 12.6222 232.043 12.5025 232.174 12.4292C234.144 11.5532 236.016 11.4665 237.434 12.1844C238.603 12.7749 239.393 13.8672 239.719 15.342C239.738 15.4297 239.737 15.5205 239.716 15.6077C239.695 15.695 239.655 15.7765 239.599 15.8464C239.543 15.9162 239.472 15.9727 239.391 16.0116C239.31 16.0504 239.222 16.0708 239.132 16.0712H239.136Z" fill="white"/>
<path d="M236.527 16.9627C236.112 16.9633 235.698 16.9042 235.3 16.7872C234.245 16.4754 232.795 15.6001 231.862 13.195C231.821 13.0507 231.836 12.8964 231.903 12.7622C231.97 12.6281 232.084 12.5237 232.224 12.4695C232.364 12.4153 232.519 12.4151 232.659 12.469C232.799 12.523 232.913 12.6271 232.981 12.7611C233.579 14.3053 234.499 15.2996 235.64 15.6363C236.653 15.9376 237.798 15.698 238.784 14.9855C238.914 14.9087 239.067 14.8831 239.214 14.9136C239.362 14.9441 239.492 15.0286 239.58 15.1504C239.668 15.2723 239.708 15.4227 239.691 15.5721C239.674 15.7215 239.601 15.8591 239.488 15.9579C238.574 16.6178 237.54 16.9627 236.527 16.9627Z" fill="white"/>
<path d="M219.669 15.7521C219.016 15.7521 218.427 15.4094 218.17 14.8482C218.128 14.7757 218.101 14.6951 218.092 14.6117C218.082 14.5283 218.091 14.4438 218.116 14.3638C218.141 14.2837 218.183 14.2098 218.238 14.1468C218.294 14.0838 218.362 14.0331 218.438 13.9979C218.514 13.9627 218.597 13.9438 218.681 13.9424C218.765 13.941 218.848 13.9572 218.925 13.9899C219.002 14.0226 219.072 14.071 219.13 14.1322C219.187 14.1934 219.231 14.2659 219.259 14.345C219.34 14.5205 219.589 14.5755 219.795 14.5379C219.846 14.5288 220.103 14.4723 220.115 14.287C220.14 14.1389 220.219 14.0054 220.337 13.9125C220.455 13.8195 220.603 13.774 220.753 13.7847C220.903 13.7955 221.043 13.8617 221.147 13.9705C221.25 14.0793 221.309 14.2228 221.312 14.3729C221.263 15.0546 220.752 15.5826 220.009 15.7182C219.897 15.7399 219.783 15.7512 219.669 15.7521Z" fill="white"/>
<path d="M237.788 8.27407C237.685 8.27516 237.583 8.24919 237.493 8.19875C235.802 7.23911 234.723 5.76726 234.533 4.15983C234.362 2.70756 234.92 1.29748 236.105 0.190204C236.224 0.0989216 236.373 0.0551636 236.522 0.0674659C236.671 0.0797682 236.811 0.147249 236.913 0.256745C237.015 0.366241 237.073 0.5099 237.075 0.659703C237.077 0.809505 237.023 0.954706 236.924 1.06699C236.025 1.90686 235.599 2.95538 235.725 4.01897C235.87 5.243 236.73 6.38643 238.085 7.1555C238.198 7.22224 238.286 7.32413 238.336 7.44566C238.386 7.56719 238.395 7.7017 238.361 7.82871C238.328 7.95571 238.254 8.06826 238.15 8.1492C238.047 8.23015 237.92 8.27505 237.788 8.27709V8.27407Z" fill="white"/>
<path d="M237.789 8.27434C237.677 8.27334 237.567 8.24105 237.472 8.1811C237.377 8.12115 237.301 8.03593 237.252 7.93502C237.203 7.83411 237.183 7.72152 237.195 7.60993C237.206 7.49835 237.249 7.39219 237.317 7.30341C238.341 6.00179 238.728 4.70394 238.437 3.55072C238.179 2.52705 237.391 1.66157 236.275 1.17573C236.195 1.14976 236.121 1.10737 236.059 1.05126C235.996 0.995157 235.946 0.926581 235.912 0.849943C235.877 0.773304 235.859 0.690297 235.858 0.606254C235.858 0.522211 235.875 0.438991 235.909 0.36194C235.942 0.284889 235.991 0.21571 236.053 0.158849C236.115 0.101988 236.188 0.058703 236.268 0.0317729C236.348 0.00484285 236.432 -0.00513586 236.516 0.00247785C236.599 0.0100916 236.68 0.0351289 236.754 0.0759822C238.213 0.710971 239.251 1.87022 239.6 3.25771C239.869 4.32205 239.855 6.01686 238.26 8.04536C238.204 8.11687 238.133 8.17466 238.051 8.21434C237.969 8.25402 237.88 8.27454 237.789 8.27434Z" fill="white"/>
<path d="M242.201 5.66412C242.135 5.66384 242.071 5.65316 242.009 5.63248C241.858 5.58102 241.734 5.47217 241.664 5.32967C241.593 5.18716 241.582 5.02255 241.632 4.8717C242.255 3.03001 243.497 1.69299 245.04 1.20338C246.434 0.760467 247.923 1.04293 249.235 1.99805C249.307 2.04077 249.37 2.09815 249.418 2.16651C249.467 2.23487 249.501 2.3127 249.518 2.39499C249.535 2.47728 249.535 2.56222 249.517 2.64436C249.499 2.72649 249.465 2.804 249.415 2.87191C249.366 2.93982 249.303 2.99663 249.23 3.03868C249.157 3.08074 249.076 3.10712 248.993 3.11612C248.909 3.12512 248.825 3.11655 248.745 3.09095C248.665 3.06535 248.591 3.0233 248.528 2.96749C247.534 2.24286 246.424 2.02291 245.403 2.34681C244.228 2.71967 243.268 3.77798 242.766 5.25661C242.726 5.37478 242.65 5.47747 242.548 5.55048C242.447 5.62348 242.326 5.66319 242.201 5.66412Z" fill="white"/>
<path d="M244.971 6.42259C244.127 6.42259 243.11 6.20867 241.926 5.59778C241.848 5.56676 241.777 5.51971 241.718 5.45964C241.659 5.39958 241.613 5.32784 241.584 5.24905C241.554 5.17025 241.542 5.08615 241.546 5.00215C241.551 4.91815 241.574 4.83612 241.612 4.76134C241.651 4.68657 241.705 4.62069 241.77 4.56797C241.836 4.51525 241.912 4.47685 241.993 4.45524C242.075 4.43363 242.16 4.42929 242.243 4.4425C242.326 4.45571 242.405 4.48617 242.476 4.53194C243.948 5.29121 245.295 5.4268 246.373 4.92363C247.33 4.47695 248.03 3.53915 248.297 2.35203C248.343 2.20883 248.441 2.08799 248.571 2.01325C248.702 1.93852 248.855 1.9153 249.002 1.94814C249.149 1.98099 249.278 2.06753 249.364 2.19077C249.451 2.314 249.488 2.46503 249.468 2.61416C249.119 4.16736 248.176 5.40495 246.881 6.01056C246.282 6.28656 245.63 6.42724 244.971 6.42259Z" fill="white"/>
<path d="M232.421 13.4705C232.318 13.4711 232.216 13.4451 232.126 13.3952C230.424 12.4317 229.339 10.9637 229.151 9.36753C228.979 7.91677 229.542 6.50518 230.737 5.38661C230.793 5.32319 230.861 5.2721 230.937 5.23664C231.014 5.20118 231.097 5.18214 231.181 5.18075C231.265 5.17935 231.349 5.19563 231.426 5.22854C231.504 5.26144 231.574 5.31024 231.631 5.37179C231.689 5.43334 231.733 5.50626 231.76 5.58585C231.788 5.66544 231.799 5.74994 231.792 5.83389C231.784 5.91783 231.76 5.99936 231.719 6.07321C231.679 6.14706 231.623 6.21159 231.556 6.26264C230.648 7.1123 230.216 8.16459 230.342 9.22667C230.486 10.4394 231.351 11.5783 232.717 12.3511C232.83 12.4177 232.919 12.5195 232.969 12.6412C233.019 12.7628 233.028 12.8974 232.995 13.0246C232.961 13.1518 232.887 13.2646 232.783 13.3456C232.68 13.4267 232.552 13.4716 232.421 13.4735V13.4705Z" fill="white"/>
<path d="M232.421 13.4709C232.309 13.4699 232.199 13.4376 232.104 13.3777C232.01 13.3177 231.933 13.2325 231.884 13.1316C231.835 13.0307 231.816 12.9181 231.827 12.8065C231.839 12.6949 231.881 12.5887 231.95 12.5C232.973 11.1976 233.361 9.9005 233.07 8.74728C232.812 7.72361 232.023 6.85738 230.908 6.37228C230.776 6.30003 230.676 6.18107 230.627 6.03879C230.579 5.8965 230.585 5.74117 230.645 5.60329C230.705 5.46541 230.814 5.35496 230.952 5.29362C231.089 5.23228 231.244 5.2245 231.387 5.27179C232.846 5.90678 233.883 7.06678 234.233 8.45351C234.502 9.5186 234.487 11.2134 232.893 13.2412C232.837 13.3128 232.765 13.3707 232.683 13.4105C232.602 13.4503 232.512 13.471 232.421 13.4709Z" fill="white"/>
<path d="M155.899 82.6478C155.757 82.6547 155.616 82.6322 155.484 82.5818C155.352 82.5314 155.232 82.4541 155.131 82.3548C154.007 81.3552 155.658 78.5946 157.608 75.7601C159.331 73.257 161.782 70.0941 164.929 66.3151C163.284 67.6755 161.724 68.8942 160.313 69.9194C158.837 70.9913 157.614 71.7852 156.678 72.2778C155.743 72.7704 154.813 73.1463 154.288 72.5927C153.762 72.039 153.952 71.0862 156.524 68.0461C158.076 66.2134 160.318 63.8361 163.211 60.9542C162.625 61.2352 162.081 61.4725 161.587 61.6623C159.829 62.3402 158.857 62.3598 158.436 61.7338C157.997 61.083 158.421 60.1776 159.852 58.7065C161.132 57.3891 163.159 55.6935 165.872 53.6597C172.075 49.0205 177.901 46.5589 183.189 46.3434C188.132 46.1431 192.716 47.8838 196.854 51.5288C201.201 46.1235 205.369 40.4259 209.157 34.3751C209.248 34.2563 209.381 34.1757 209.528 34.1492C209.676 34.1226 209.828 34.1519 209.955 34.2314C210.082 34.3109 210.175 34.4349 210.215 34.5791C210.256 34.7234 210.241 34.8775 210.174 35.0116C206.342 41.1317 202.13 46.8858 197.738 52.3438C198.29 52.8751 198.834 53.4408 199.369 54.0409C200.387 55.1851 201.451 56.3925 202.478 57.5601C205.725 61.251 209.082 65.0624 211.837 67.7674C215.851 71.7068 216.922 71.6187 217.154 71.4982C217.238 71.4553 217.939 70.9551 216.932 66.7768C216.903 66.6358 216.926 66.4892 216.996 66.3633C217.066 66.2375 217.178 66.1409 217.313 66.091C217.448 66.041 217.597 66.041 217.732 66.0909C217.867 66.1409 217.979 66.2375 218.049 66.3633C222.736 75.5394 224.435 75.3126 224.447 75.3051C224.758 75.1718 224.963 73.3873 223.948 70.5363C223.906 70.3943 223.918 70.2418 223.981 70.1079C224.044 69.9739 224.154 69.868 224.291 69.8102C224.427 69.7525 224.58 69.747 224.72 69.7947C224.86 69.8425 224.978 69.9403 225.051 70.0693C228.646 77.3298 231.227 79.6627 232.006 79.4224C232.038 79.4126 232.533 79.2318 232.677 77.4692C231.041 75.0844 229.551 72.0232 228.733 68.9921C228.141 66.8032 227.326 62.9661 228.503 61.889C228.649 61.7532 228.83 61.6615 229.026 61.6246C229.222 61.5877 229.424 61.607 229.609 61.6803C231.215 62.2634 232.857 66.6518 233.605 72.3569C233.859 74.295 233.961 75.8731 233.907 77.1122C235.611 79.4969 237.296 80.9281 238.05 80.7353C238.456 80.6298 238.953 79.3335 237.929 75.1778C236 67.3591 233.479 58.3442 229.404 50.7582C224.859 42.2992 219.188 37.2984 212.537 35.871C211.996 35.7831 211.458 35.6917 210.923 35.5968C210.778 35.5598 210.652 35.4703 210.569 35.3456C210.487 35.2209 210.454 35.07 210.476 34.9222C210.499 34.7743 210.575 34.6402 210.691 34.5458C210.807 34.4513 210.954 34.4034 211.104 34.4112C211.666 34.482 212.22 34.5759 212.768 34.6929C230.903 37.6306 253.075 36.4254 273.918 31.347C284.674 28.7265 294.406 25.251 302.836 21.0177C311.749 16.5457 318.765 11.4311 323.686 5.82542C323.735 5.75887 323.798 5.70332 323.871 5.66226C323.943 5.6212 324.023 5.59551 324.105 5.58681C324.188 5.57811 324.271 5.58659 324.351 5.61171C324.43 5.63683 324.503 5.67805 324.565 5.73278C324.628 5.78751 324.678 5.85458 324.714 5.92976C324.749 6.00494 324.769 6.08662 324.771 6.16966C324.773 6.2527 324.758 6.33532 324.727 6.41231C324.696 6.48931 324.649 6.55903 324.59 6.61709C319.564 12.3418 312.426 17.5452 303.374 22.0896C294.86 26.3643 285.044 29.8706 274.202 32.5145C260.746 35.7927 246.732 37.4664 233.591 37.4672C228.4 37.4778 223.213 37.1979 218.054 36.6288C222.814 39.1597 226.967 43.698 230.458 50.1963C234.595 57.8998 237.144 67.0043 239.091 74.8953C240.14 79.1459 239.89 81.5028 238.346 81.9006C237.122 82.2162 235.382 80.9477 233.683 78.8326C233.436 79.8118 232.994 80.3798 232.354 80.5741C232.212 80.617 232.064 80.6388 231.916 80.6389C230.071 80.6389 227.766 77.4534 225.909 74.2363C225.902 75.2818 225.625 76.1088 224.922 76.4124C224.767 76.4793 224.599 76.5134 224.43 76.5126C223.044 76.5126 221.111 74.3455 218.665 70.0482C218.703 71.404 218.387 72.2153 217.707 72.5686C215.344 73.7964 210.037 67.9685 201.578 58.3578C200.551 57.1917 199.489 55.985 198.473 54.8446C197.983 54.2922 197.485 53.7725 196.98 53.2854C191.504 60.0172 185.77 66.2978 180.163 72.2514C176.746 75.8806 174.325 78.3211 172.543 79.9346C170.128 82.119 169.015 82.6983 168.291 82.1544C167.628 81.655 167.626 80.5809 169.584 76.5638C170.649 74.3794 172.234 71.4598 174.392 67.7026C170.578 71.6805 166.808 75.2433 163.495 77.9874C158.824 81.8523 156.827 82.6478 155.899 82.6478ZM170.83 59.7415C170.944 59.7425 171.057 59.7763 171.153 59.8389C171.249 59.9015 171.325 59.9903 171.373 60.0949C171.42 60.1994 171.437 60.3153 171.421 60.429C171.405 60.5427 171.356 60.6494 171.282 60.7365C156.557 77.5573 155.909 80.8942 155.954 81.4358C156.278 81.4298 157.894 81.1225 163.159 76.7009C167.403 73.1358 172.384 68.2479 177.183 62.9383C177.285 62.8345 177.42 62.7709 177.565 62.7592C177.71 62.7475 177.854 62.7884 177.971 62.8745C178.088 62.9605 178.17 63.086 178.202 63.2276C178.234 63.3693 178.213 63.5177 178.144 63.6456C170.624 76.3755 169.164 80.0717 169.09 81.0803C169.951 80.7391 172.479 78.6638 179.291 71.4266C184.897 65.476 190.63 59.1954 196.099 52.4666C192.186 49.0107 187.875 47.3535 183.238 47.5449C178.197 47.7505 172.596 50.1323 166.591 54.6254C161.032 58.7826 159.812 60.4608 159.55 60.9919C160.289 60.9414 162.501 60.201 166.421 57.8282C166.547 57.7576 166.694 57.7347 166.836 57.7638C166.978 57.7928 167.104 57.8718 167.192 57.9863C167.281 58.1009 167.325 58.2434 167.317 58.3878C167.309 58.5321 167.249 58.6688 167.148 58.7728C158.109 67.5203 155.936 70.5694 155.417 71.5569C157.149 70.879 162.728 67.0194 170.423 59.9004C170.534 59.7984 170.679 59.7417 170.83 59.7415ZM229.271 62.8403C229.091 63.1944 228.834 64.7694 229.89 68.6826C230.54 71.0869 231.563 73.3354 232.677 75.226C232.635 74.4675 232.552 73.5689 232.413 72.5143C231.59 66.2172 229.928 63.2012 229.271 62.8403Z" fill="white"/>
<path d="M209.665 35.2962C209.559 35.2952 209.455 35.2661 209.364 35.2119C209.272 35.1578 209.197 35.0805 209.145 34.9878C209.093 34.8952 209.067 34.7904 209.068 34.6843C209.07 34.5781 209.1 34.4743 209.154 34.3833C209.294 34.1573 209.349 34.0661 209.369 34.0315C209.419 33.9253 209.495 33.795 209.599 33.6157C216.997 20.8353 224.478 19.7371 228.947 19.0818L229.091 19.0607C229.24 19.054 229.387 19.1029 229.502 19.198C229.617 19.2931 229.693 19.4275 229.714 19.5752C229.736 19.7229 229.702 19.8734 229.619 19.9976C229.536 20.1217 229.41 20.2106 229.265 20.247L229.121 20.2681C224.591 20.9332 217.747 21.9381 210.637 34.2168C210.508 34.439 210.46 34.5241 210.444 34.5565C210.454 34.5347 210.463 34.5124 210.471 34.4895C210.386 34.6698 210.288 34.8437 210.177 35.01C210.123 35.0974 210.048 35.1695 209.958 35.2196C209.869 35.2697 209.768 35.2961 209.665 35.2962Z" fill="white"/>
<path d="M0.561854 103.139C0.413344 103.129 0.273812 103.064 0.170145 102.957C0.0664773 102.851 0.00601139 102.709 0.000398418 102.56C-0.00521455 102.412 0.0444227 102.266 0.139745 102.152C0.235068 102.037 0.36933 101.962 0.516659 101.941C39.7609 98.932 97.8322 65.545 120.388 54.3374C127.679 50.7151 134.566 47.2931 141.506 44.3998C148.756 41.377 155.1 39.3342 161.336 38.0213C161.126 37.7567 160.972 37.4519 160.884 37.1257C160.68 36.3488 160.902 35.5705 161.55 34.7906C156.869 36.0832 153.473 35.8783 152.684 34.1127C152.299 33.2532 152.62 32.28 153.558 31.3084C148.877 32.2748 144.718 31.7452 144 29.8342C143.698 29.0411 143.924 27.9293 145.836 26.5659C141.501 27.4864 136.308 28.1357 135.516 26.2043C135.055 25.0745 136.244 23.7239 139.051 22.188C146.036 18.366 163.84 14.306 174.123 16.5296C177.417 17.2422 180.149 18.2176 182.554 19.0779C187.478 20.8382 191.367 22.2279 197.439 20.6672C199.782 20.0646 202.329 18.8263 205.026 17.5149C209.018 15.5745 213.141 13.5686 217.325 13.2319C222.172 12.841 226.204 14.8205 229.653 19.2812C229.733 19.4079 229.762 19.5597 229.736 19.7071C229.71 19.8544 229.63 19.9868 229.512 20.0785C229.394 20.1701 229.245 20.2144 229.096 20.2028C228.947 20.1912 228.807 20.1245 228.705 20.0156C221.58 10.8004 213.431 14.7617 205.551 18.5935C202.798 19.932 200.198 21.196 197.738 21.8287C191.31 23.4813 187.065 21.9643 182.15 20.2077C179.777 19.3596 177.088 18.3999 173.869 17.7017C164.001 15.5692 146.3 19.5916 139.628 23.2403C136.896 24.7355 136.566 25.601 136.627 25.7509C136.627 25.7577 136.997 26.4288 140.186 26.2179C142.822 26.0462 146.434 25.3268 150.639 24.1359C150.785 24.1035 150.937 24.1258 151.066 24.1988C151.196 24.2717 151.294 24.3899 151.342 24.5308C151.389 24.6717 151.383 24.8253 151.325 24.9619C151.266 25.0986 151.159 25.2087 151.024 25.2711C145.902 27.3003 144.902 28.8287 145.121 29.4139C145.573 30.6191 150.612 31.3475 156.6 29.2151C156.742 29.1727 156.894 29.1839 157.028 29.2464C157.162 29.309 157.268 29.4185 157.326 29.5543C157.385 29.6901 157.391 29.8425 157.344 29.9828C157.298 30.123 157.201 30.2412 157.073 30.3148C154.219 31.7686 153.539 33.0905 153.777 33.6238C154.254 34.6897 158.103 35.043 164.85 32.4186C164.991 32.3735 165.144 32.3819 165.279 32.4421C165.415 32.5024 165.523 32.6104 165.584 32.7454C165.644 32.8805 165.653 33.0332 165.609 33.1743C165.564 33.3155 165.469 33.4353 165.341 33.5109C163.006 34.7093 161.808 35.9145 162.045 36.8161C162.13 37.1362 162.373 37.4443 162.746 37.7328L162.772 37.7275C164.084 37.4745 165.066 37.2816 165.872 37.1249C167.735 36.7604 168.671 36.5773 170.57 36.2474C172.311 35.9461 177.485 35.3729 178.384 36.6715C178.73 37.1709 178.761 37.7871 178.477 38.3625C177.776 39.7673 175.35 40.7518 172.3 40.8709C169.136 40.9951 164.829 40.4528 162.492 39.0066C148.179 41.8697 134.934 48.45 120.922 55.4131C98.2683 66.6689 40.0878 100.111 0.608555 103.139H0.561854ZM164.46 38.6269C166.427 39.3546 169.331 39.7914 172.247 39.677C175.213 39.561 176.997 38.639 177.4 37.8315C177.513 37.6055 177.466 37.4684 177.405 37.3743C176.963 37.018 173.94 36.8832 170.772 37.4338C168.888 37.7614 167.954 37.9437 166.101 38.3068L164.46 38.6269Z" fill="white"/>
<path d="M227.804 27.3982C227.785 27.3982 227.766 27.3982 227.747 27.3982C227.589 27.3827 227.443 27.3054 227.342 27.1831C227.24 27.0608 227.191 26.9034 227.205 26.7451C228.059 17.5412 235.345 9.97857 242.185 6.56484C242.324 6.51123 242.479 6.5116 242.619 6.56589C242.758 6.62017 242.873 6.72447 242.94 6.85847C243.006 6.99246 243.021 7.14655 242.98 7.2907C242.94 7.43485 242.847 7.55874 242.72 7.63822C236.176 10.9036 229.21 18.1084 228.399 26.8536C228.384 27.0019 228.316 27.1396 228.206 27.2402C228.096 27.3407 227.953 27.397 227.804 27.3982Z" fill="white"/>
</svg>
