<svg width="20" height="20" viewBox="0 0 20 20" fill="none" xmlns="http://www.w3.org/2000/svg">
    <path fill-rule="evenodd" clip-rule="evenodd" d="M13.75 3.75008V10.4167C13.75 12.2577 12.2576 13.7501 10.4167 13.7501H3.75001C1.90906 13.7501 0.416672 12.2577 0.416672 10.4167V3.75008C0.416672 1.90913 1.90906 0.416748 3.75001 0.416748H10.4167C12.2576 0.416748 13.75 1.90913 13.75 3.75008ZM1.66667 3.75008V10.4167C1.66667 10.9693 1.88617 11.4992 2.27687 11.8899C2.66757 12.2806 3.19747 12.5001 3.75001 12.5001H10.4167C11.5673 12.5001 12.5 11.5673 12.5 10.4167V3.75008C12.5 2.59949 11.5673 1.66675 10.4167 1.66675H3.75001C2.59941 1.66675 1.66667 2.59949 1.66667 3.75008Z" fill="#272736"/>
    <path d="M16.25 5.625C15.9067 5.62949 15.6295 5.9067 15.625 6.25V12.9167C15.6204 14.4105 14.4105 15.6204 12.9167 15.625H6.25C5.90482 15.625 5.625 15.9048 5.625 16.25C5.625 16.5952 5.90482 16.875 6.25 16.875H12.9167C15.1028 16.875 16.875 15.1028 16.875 12.9167V6.25C16.8705 5.9067 16.5933 5.62949 16.25 5.625Z" fill="#272736"/>
</svg>