<svg width="116" height="124" viewBox="0 0 116 124" fill="none" xmlns="http://www.w3.org/2000/svg">
<path d="M16.743 18.7C6.38238 24.7018 -3.85563e-06 35.7935 -3.33094e-06 47.7971L-2.08928e-06 76.2029C-1.56458e-06 88.2065 6.38239 99.2982 16.743 105.3L41.2533 119.499C51.6132 125.5 64.3771 125.5 74.7374 119.5L99.2549 105.3C109.617 99.2981 116 88.2057 116 76.2013L116 47.7988C116 35.7943 109.617 24.7019 99.2548 18.7004L74.7374 4.50014C64.3771 -1.50048 51.6132 -1.5 41.2533 4.50139L16.743 18.7Z" fill="#3894FE"/>
<path fill-rule="evenodd" clip-rule="evenodd" d="M45.2989 57.3748L45.2988 57.3748C44.9293 57.2895 44.5722 57.2071 44.2126 57.1877C42.4916 57.0927 41.0852 57.7587 39.9758 59.0688C39.8496 59.218 39.7208 59.3644 39.5784 59.4987C39.1891 59.8662 38.6521 59.8893 38.2872 59.5028C37.6254 58.803 36.9622 58.1167 36.1091 57.6407C36.002 57.581 35.9287 57.4074 35.8975 57.2731C35.0079 53.5218 34.3433 49.7365 34.0938 45.8794C33.9527 43.6904 33.9446 41.5123 34.2538 39.3437C34.4423 38.02 34.7244 36.7072 35.5205 35.5774C36.4251 34.2958 37.6091 34.1357 38.9138 34.845C40.1955 35.5408 41.1245 36.6312 41.9776 37.7813C43.9943 40.5019 45.4577 43.5209 46.7271 46.6429C46.7532 46.7072 46.7867 46.7701 46.8201 46.8328C46.8805 46.9462 46.9406 47.059 46.9563 47.1787C46.9888 47.4296 47.0241 47.7306 46.9197 47.9422C46.1968 49.4164 45.8605 50.9734 45.8496 52.605C45.8437 53.5184 45.8446 54.4324 45.8455 55.3463V55.3464V55.3464V55.3465C45.846 55.9088 45.8466 56.471 45.8455 57.0331C45.8464 57.1383 45.8402 57.2442 45.8343 57.344V57.344V57.344L45.8343 57.344C45.8313 57.3946 45.8284 57.4436 45.8266 57.4901C45.647 57.4552 45.4716 57.4147 45.299 57.3748L45.2989 57.3748L45.2989 57.3748ZM38.4446 48.8821C39.002 48.8902 39.3031 48.5891 39.5512 47.8242C39.7331 47.2649 39.9227 46.7084 40.1122 46.152L40.1122 46.1519L40.1122 46.1519L40.1122 46.1518C40.2421 45.7706 40.3719 45.3894 40.4993 45.0073C40.5956 44.7192 40.693 44.4313 40.7904 44.1434L40.7904 44.1433L40.7904 44.1432L40.7904 44.1432L40.7905 44.1432C41.0877 43.2643 41.3851 42.3851 41.6548 41.4974C41.8514 40.8545 41.5761 40.3744 41.0106 40.2117C40.483 40.0584 40.0124 40.3175 39.7994 40.9251C39.2881 42.3844 38.7904 43.8491 38.2967 45.3152C38.2488 45.4576 38.2004 45.6 38.152 45.7423L38.1519 45.7426C37.9293 46.3972 37.7066 47.0524 37.525 47.7184C37.3596 48.3287 37.8234 48.8726 38.4446 48.8821ZM44.0133 48.8482C44.0214 48.3016 43.7488 47.9137 43.3189 47.7985C42.8754 47.6791 42.4414 47.8581 42.204 48.2745C42.1227 48.4155 42.0671 48.5742 42.0142 48.7302C41.4825 50.2912 40.9522 51.8536 40.426 53.4173C40.3835 53.5438 40.3404 53.6703 40.2973 53.7968C40.137 54.267 39.9764 54.738 39.8428 55.2157C39.6787 55.8043 39.9541 56.279 40.5101 56.4553C40.9875 56.6072 41.5137 56.3455 41.6927 55.8274C42.4314 53.6876 43.1586 51.544 43.8854 49.4015L43.8854 49.4014L43.959 49.1845C43.9884 49.0923 43.998 48.9937 44.0052 48.92C44.0079 48.8918 44.0103 48.8673 44.0133 48.8482ZM83.3888 89.7427V59.0674C83.2382 59.1124 83.0892 59.1465 82.9455 59.1794C82.6431 59.2488 82.3645 59.3126 82.1438 59.4607C81.8277 59.6746 81.5449 59.9357 81.2617 60.1973C81.06 60.3834 80.8581 60.5699 80.6438 60.7396C80.5836 60.7874 80.5232 60.8363 80.4624 60.8856C80.1127 61.1689 79.7515 61.4616 79.3459 61.5968C78.0005 62.047 76.9277 61.5235 76.015 60.509C75.7398 60.2032 75.4232 59.9336 75.1067 59.6642L75.1066 59.6642L75.1066 59.6641L75.1066 59.6641L75.1066 59.6641L75.1066 59.6641C74.9614 59.5405 74.8162 59.4169 74.675 59.2898C74.6316 59.3237 74.5882 59.3563 74.5448 59.3888V89.7427H83.3888ZM34.0056 89.7482H72.482V89.6632C72.482 79.5525 72.482 69.4724 72.4834 59.2885C72.3708 59.3665 72.2649 59.4356 72.1652 59.5007L72.1652 59.5008C71.967 59.6301 71.7932 59.7435 71.6398 59.8798C71.4166 60.0777 71.2075 60.2918 70.9982 60.506L70.9981 60.5061C70.8819 60.6251 70.7657 60.7441 70.6471 60.8603C69.3966 62.085 67.6986 62.0701 66.4739 60.8251C66.3913 60.741 66.3094 60.6561 66.2275 60.5713L66.2275 60.5712C65.9962 60.3315 65.7648 60.0916 65.5164 59.8703C64.5508 59.0104 63.2176 58.8775 62.1448 59.5977C61.7263 59.8782 61.3653 60.2519 61.0084 60.6213L61.0083 60.6214L61.0068 60.6229C60.9467 60.6852 60.8867 60.7473 60.8266 60.8088C59.7646 61.8938 58.228 62.0931 57.0603 61.2265C56.7005 60.9598 56.3863 60.6275 56.0748 60.2981L56.0747 60.2981C56.014 60.2339 55.9534 60.1698 55.8926 60.1063C54.6882 58.8504 52.9183 58.8165 51.6815 60.0371C51.5461 60.1703 51.4132 60.3059 51.2803 60.4415C51.087 60.6388 50.8937 60.8361 50.6928 61.0258C49.8424 61.8287 48.4523 62.0321 47.4744 61.4055C46.98 61.089 46.5555 60.6549 46.1387 60.2286L46.1381 60.228C46.0943 60.1832 46.0506 60.1385 46.007 60.0941C44.9233 58.9955 43.3691 58.8138 42.1702 59.7224C41.8659 59.9523 41.6001 60.2322 41.3345 60.5118C41.2366 60.6148 41.1388 60.7178 41.0391 60.8183C39.7751 62.0945 38.0689 62.0918 36.7995 60.8074C36.7062 60.713 36.6142 60.6167 36.5222 60.5204L36.5222 60.5204L36.5222 60.5204C36.3024 60.2904 36.0823 60.0601 35.8433 59.8526C35.3252 59.4024 34.7353 59.1149 34.0056 59.1854V89.7482ZM60.4835 58.0702L60.4836 58.0703C60.49 58.1311 60.4967 58.1948 60.5023 58.2631C60.537 58.2483 60.5668 58.2372 60.5925 58.2275C60.6422 58.2089 60.6767 58.196 60.7017 58.1736C62.4553 56.7414 64.9779 56.8974 66.6257 58.2197C66.9232 58.459 67.1889 58.7372 67.4547 59.0156C67.6033 59.1712 67.7519 59.3268 67.906 59.4756C68.3197 59.8743 68.8229 59.8757 69.2311 59.4865C69.3708 59.3522 69.5064 59.2098 69.6271 59.0579C71.7021 56.4539 75.543 56.6153 77.435 59.1135C78.1104 60.0059 78.661 59.9923 79.4205 59.1786C79.4548 59.142 79.4911 59.1069 79.5274 59.0718L79.5275 59.0718C79.6 59.0017 79.6723 58.9317 79.7283 58.8504C79.7806 58.7747 79.84 58.6994 79.8997 58.6236L79.8998 58.6235C80.0572 58.424 80.2168 58.2216 80.2532 58.0014C80.6262 55.7378 80.4878 53.5272 79.3432 51.4738C78.4711 49.9074 76.9142 48.7519 74.7849 49.1248C74.4867 49.1768 74.194 49.2601 73.8841 49.3482L73.884 49.3482L73.884 49.3482C73.7331 49.3912 73.5781 49.4352 73.4164 49.4774C73.4446 49.3793 73.4695 49.2856 73.4935 49.1955L73.4935 49.1954L73.4935 49.1954C73.5444 49.0039 73.591 48.8283 73.6565 48.6596C74.1122 47.4946 74.8228 46.5805 76.1343 46.3513C76.5281 46.2829 76.9419 46.3068 77.3472 46.3301L77.4336 46.335C78.0249 46.3676 78.5037 46.034 78.585 45.4888C78.6623 44.9761 78.3057 44.519 77.7401 44.4024C75.5864 43.9589 73.3934 44.9544 72.3179 46.9101C72.0794 47.3451 71.8908 47.8077 71.6977 48.2814C71.6096 48.4975 71.5206 48.7158 71.4255 48.9349C71.3868 48.8884 71.3455 48.8392 71.3031 48.7887L71.303 48.7886C71.2652 48.7436 71.2265 48.6975 71.1881 48.6515C70.2415 47.519 69.0616 46.9223 67.5561 47.0254C65.8622 47.1406 64.586 48.052 63.5213 49.2523C61.3812 51.6664 60.4603 54.5471 60.4603 57.7464C60.4603 57.8503 60.4713 57.9548 60.4835 58.0702ZM53.7904 41.3711H59.6819C59.6819 41.6063 59.6831 41.8404 59.6844 42.0736C59.6875 42.6432 59.6905 43.2078 59.6751 43.7717C59.6656 44.1446 59.7456 44.3345 60.1484 44.4905C61.2619 44.9217 62.2547 45.5741 63.086 46.4475C63.1352 46.4995 63.1765 46.5582 63.2227 46.6239L63.2228 46.624C63.2428 46.6524 63.2638 46.6822 63.2868 46.7133C59.3971 50.2097 58.0652 54.6161 58.5413 59.8051C58.4656 59.7484 58.389 59.6928 58.3124 59.6372L58.3124 59.6372C58.1432 59.5144 57.974 59.3916 57.8143 59.2572C57.6188 59.0918 57.4306 58.9152 57.2426 58.7386L57.2426 58.7386C56.8724 58.3912 56.5028 58.0442 56.0784 57.7843C54.2054 56.6369 51.5038 57.1347 50.0838 58.8096C49.8804 59.0497 49.662 59.2802 49.4423 59.5054C49.1724 59.782 48.8239 59.8702 48.4902 59.7034C48.1335 59.5243 47.8067 59.2938 47.8107 58.7906C47.817 57.9953 47.8119 57.1998 47.8068 56.4043V56.4041C47.7986 55.1201 47.7904 53.8362 47.8297 52.5533C47.9464 48.787 49.7434 46.084 53.1882 44.5461C53.6819 44.325 53.7863 44.0999 53.766 43.6333C53.7435 43.1251 53.7499 42.6154 53.7562 42.1059V42.1057V42.1057C53.7587 41.9069 53.7611 41.7081 53.7619 41.5095C53.7619 41.4931 53.766 41.4767 53.7725 41.4501L53.7725 41.4501C53.7773 41.4306 53.7835 41.4056 53.7904 41.3711ZM60.6447 39.3383V36.436H52.7921V39.3383H60.6447Z" fill="white"/>
</svg>
