<svg width="169" height="49" viewBox="0 0 169 49" fill="none" xmlns="http://www.w3.org/2000/svg">
    <path d="M68.2836 42.7202C66.025 42.7202 64.2633 42.0954 62.9985 40.8456C61.7488 39.5959 61.1239 37.8116 61.1239 35.4928V26.6393H64.7828V35.3573C64.7828 38.1881 65.9573 39.6034 68.3062 39.6034C69.4505 39.6034 70.3238 39.2646 70.9261 38.5871C71.5284 37.8944 71.8295 36.8179 71.8295 35.3573V26.6393H75.4432V35.4928C75.4432 37.8116 74.8108 39.5959 73.546 40.8456C72.2963 42.0954 70.5421 42.7202 68.2836 42.7202ZM84.8182 36.2382L82.6952 38.4516V42.4492H79.0589V26.6393H82.6952V34.0248L89.6967 26.6393H93.7621L87.2123 33.686L94.1461 42.4492H89.8774L84.8182 36.2382ZM105.851 42.4492L102.802 38.045H102.621H99.4364V42.4492H95.7775V26.6393H102.621C104.021 26.6393 105.233 26.8726 106.257 27.3394C107.296 27.8062 108.094 28.4687 108.651 29.327C109.208 30.1852 109.487 31.2016 109.487 32.376C109.487 33.5505 109.201 34.5668 108.629 35.4251C108.072 36.2683 107.274 36.9157 106.235 37.3674L109.781 42.4492H105.851ZM105.783 32.376C105.783 31.4877 105.497 30.8101 104.925 30.3433C104.353 29.8615 103.517 29.6206 102.418 29.6206H99.4364V35.1315H102.418C103.517 35.1315 104.353 34.8906 104.925 34.4087C105.497 33.9269 105.783 33.2493 105.783 32.376ZM122.798 39.0614H115.458L114.057 42.4492H110.308L117.355 26.6393H120.968L128.038 42.4492H124.198L122.798 39.0614ZM121.646 36.2833L119.139 30.2304L116.632 36.2833H121.646ZM129.678 26.6393H133.337V42.4492H129.678V26.6393ZM151.589 26.6393V42.4492H148.585L140.703 32.8503V42.4492H137.089V26.6393H140.115L147.975 36.2382V26.6393H151.589ZM167.571 39.5131V42.4492H155.33V26.6393H167.277V29.5754H158.966V33.0084H166.306V35.8542H158.966V39.5131H167.571Z" fill="white"/>
    <path d="M139.045 21.6101C138.449 21.6101 137.88 21.54 137.336 21.3997C136.802 21.2507 136.385 21.0667 136.087 20.8476L136.771 19.5854C137.06 19.7958 137.424 19.9623 137.862 20.085C138.3 20.2077 138.752 20.2691 139.216 20.2691C139.742 20.2691 140.137 20.199 140.399 20.0587C140.671 19.9097 140.807 19.6994 140.807 19.4277C140.807 19.2173 140.693 19.0639 140.465 18.9675C140.246 18.8711 139.895 18.7703 139.413 18.6651C138.914 18.5687 138.502 18.4679 138.178 18.3627C137.862 18.2488 137.586 18.0691 137.349 17.8237C137.121 17.5695 137.007 17.2233 137.007 16.7851C137.007 16.0576 137.31 15.4835 137.915 15.0628C138.528 14.6333 139.339 14.4186 140.347 14.4186C140.829 14.4186 141.298 14.4756 141.754 14.5895C142.209 14.6947 142.582 14.8393 142.871 15.0234L142.266 16.2855C141.977 16.1014 141.648 15.9656 141.28 15.8779C140.921 15.7903 140.557 15.7465 140.189 15.7465C139.672 15.7465 139.278 15.8253 139.006 15.9831C138.743 16.1409 138.611 16.3468 138.611 16.601C138.611 16.8289 138.725 16.9954 138.953 17.1006C139.19 17.197 139.554 17.2978 140.044 17.403C140.535 17.4994 140.938 17.6046 141.254 17.7185C141.57 17.8237 141.841 17.999 142.069 18.2444C142.297 18.4898 142.411 18.8229 142.411 19.2436C142.411 19.9974 142.104 20.5802 141.491 20.9922C140.877 21.4041 140.062 21.6101 139.045 21.6101ZM151.675 14.4975L150.282 21.5181H148.717L148.862 20.795C148.248 21.3384 147.486 21.6101 146.574 21.6101C145.996 21.6101 145.47 21.4874 144.996 21.242C144.532 20.9966 144.164 20.6416 143.892 20.1771C143.62 19.7038 143.484 19.1516 143.484 18.5205C143.484 17.7404 143.655 17.0393 143.997 16.417C144.348 15.7859 144.821 15.2951 145.417 14.9445C146.022 14.5939 146.697 14.4186 147.442 14.4186C148.564 14.4186 149.361 14.7911 149.834 15.5361L150.032 14.4975H151.675ZM146.995 20.2033C147.459 20.2033 147.871 20.0938 148.231 19.8747C148.599 19.6468 148.888 19.3356 149.098 18.9412C149.309 18.538 149.414 18.0823 149.414 17.5739C149.414 17.0217 149.252 16.5923 148.927 16.2855C148.603 15.97 148.147 15.8122 147.56 15.8122C147.096 15.8122 146.679 15.9261 146.311 16.154C145.952 16.3731 145.667 16.6843 145.456 17.0875C145.246 17.4819 145.141 17.9333 145.141 18.4416C145.141 18.9938 145.303 19.4277 145.627 19.7432C145.952 20.05 146.407 20.2033 146.995 20.2033ZM160.412 14.4975L156.008 21.5181H154.312L152.695 14.4975H154.312L155.482 19.7169L158.755 14.4975H160.412ZM167.189 17.495C167.189 17.8369 167.154 18.1699 167.084 18.4942H161.509C161.536 19.6424 162.211 20.2165 163.534 20.2165C163.937 20.2165 164.314 20.1551 164.665 20.0324C165.015 19.901 165.313 19.7213 165.559 19.4934L166.242 20.6372C165.883 20.9615 165.449 21.2069 164.941 21.3734C164.441 21.5312 163.915 21.6101 163.363 21.6101C162.662 21.6101 162.049 21.483 161.523 21.2288C161.006 20.9747 160.607 20.6153 160.326 20.1508C160.046 19.6775 159.906 19.134 159.906 18.5205C159.906 17.7404 160.076 17.0393 160.418 16.417C160.769 15.7859 161.251 15.2951 161.864 14.9445C162.487 14.5939 163.184 14.4186 163.955 14.4186C164.937 14.4186 165.721 14.6947 166.308 15.2469C166.895 15.7903 167.189 16.5397 167.189 17.495ZM163.876 15.7333C163.324 15.7333 162.851 15.8823 162.456 16.1803C162.07 16.4783 161.803 16.8859 161.654 17.403H165.677C165.686 16.8771 165.524 16.4696 165.191 16.1803C164.866 15.8823 164.428 15.7333 163.876 15.7333Z" fill="white"/>
    <path d="M65.4342 18.7427V14.9295H73.1964V11.9729H65.4342V8.38948H74.2185V5.31799H61.6105V21.8117H74.5284V18.7427H65.4342Z" fill="white"/>
    <path d="M111.054 21.8106L111.034 11.9144L106.13 20.0576H104.393L99.5076 12.1241V21.7906H95.8789V5.31689H99.0653L105.321 15.5752L111.481 5.33437H114.647L114.685 21.8106H111.054Z" fill="white"/>
    <path d="M126.311 8.23574C129.285 8.23574 131.717 10.638 131.717 13.5746C131.717 16.5113 129.285 18.9135 126.311 18.9135C123.337 18.9135 120.906 16.5113 120.906 13.5746C120.906 10.638 123.32 8.23574 126.311 8.23574ZM126.311 4.93701C121.483 4.93701 117.564 8.80759 117.564 13.5746C117.564 18.3417 121.483 22.2123 126.311 22.2123C131.139 22.2123 135.058 18.3417 135.058 13.5746C135.058 8.80759 131.139 4.93701 126.311 4.93701Z" fill="white"/>
    <path d="M93.3815 5.31689H89.1155L85.1569 10.6758L83.0327 13.575L76.9324 21.8131H81.1983L85.1569 16.4542L89.1155 21.8131H93.384L87.2987 13.575L93.3815 5.31689Z" fill="white"/>
    <path d="M83.8049 8.86919L81.1983 5.32324H76.9324L81.6832 11.7484L83.8049 8.86919Z" fill="white"/>
    <mask id="mask0_163_3862" style="mask-type:alpha" maskUnits="userSpaceOnUse" x="0" y="0" width="58" height="49">
        <path d="M27.8119 48.4087L12.7676 33.3697C-14.4358 6.1649 7.21692 -17.8468 27.808 18.3293C56.4428 -14.4867 69.0559 3.56125 42.8484 33.3697L27.8119 48.4087Z" fill="#F04033"/>
    </mask>
    <g mask="url(#mask0_163_3862)">
        <rect x="-26.1753" y="-10.4565" width="116.16" height="34.6528" fill="#2562FF"/>
        <rect x="-26.1753" y="24.1962" width="116.16" height="34.6528" fill="#FFF625"/>
    </g>
</svg>