<svg width="116" height="124" viewBox="0 0 116 124" fill="none" xmlns="http://www.w3.org/2000/svg">
<path d="M16.743 18.7C6.38238 24.7018 -3.85563e-06 35.7935 -3.33094e-06 47.7971L-2.08928e-06 76.2029C-1.56458e-06 88.2065 6.38239 99.2982 16.743 105.3L41.2533 119.499C51.6132 125.5 64.3771 125.5 74.7374 119.5L99.2549 105.3C109.617 99.2981 116 88.2057 116 76.2013L116 47.7988C116 35.7943 109.617 24.7019 99.2548 18.7004L74.7374 4.50014C64.3771 -1.50048 51.6132 -1.5 41.2533 4.50139L16.743 18.7Z" fill="#3894FE"/>
<path d="M59.0156 30.4084C59.7846 30.6892 60.6011 30.8818 61.3131 31.2683C62.7751 32.0631 63.658 33.3515 63.993 34.9735C64.4568 37.2222 63.7529 39.0992 62.0183 40.5748C61.5911 40.9369 61.0486 41.1607 60.5712 41.4672C60.4559 41.5418 60.3108 41.691 60.3095 41.8063C60.2945 44.0657 60.2986 46.3252 60.2986 48.7231C60.7367 48.4016 61.1029 48.1439 61.4555 47.87C63.6024 46.2005 65.8266 44.6476 68.257 43.4161C69.4519 42.8112 70.7091 42.346 72.0572 42.2091C74.3248 41.9771 76.1449 42.8506 77.455 44.6503C78.4749 46.0526 79.3795 47.5472 80.2434 49.054C81.8885 51.9278 83.9582 54.3976 86.79 56.1566C87.6525 56.6923 88.5924 57.1073 89.516 57.5359C90.3162 57.9061 90.9346 58.412 90.9957 59.3451C91.0675 60.4559 90.2375 61.3293 89.0413 61.3659C87.7163 61.4066 86.3831 61.4527 85.0648 61.3496C82.9166 61.1814 80.9432 60.4247 79.1367 59.2488C76.705 57.6647 74.9202 55.4975 73.549 52.9708C73.1991 52.3252 72.913 51.6444 72.5915 50.9839C72.1263 50.0291 71.0753 49.6155 70.1313 50.0115C69.1725 50.4143 68.7005 51.441 69.083 52.4351C69.7651 54.2077 70.6847 55.8555 71.7859 57.403C72.818 58.8514 74.0142 60.148 75.4654 61.3279C75.2769 61.3523 75.1711 61.3767 75.064 61.3781C73.8881 61.3808 72.7136 61.3849 71.5377 61.374C71.3831 61.3727 71.1892 61.3415 71.0807 61.2452C69.6485 59.9825 68.4455 58.5639 68.0807 56.6109C68.0142 56.2583 67.9953 55.8948 67.9722 55.5354C67.9071 54.4993 67.0703 53.695 66.0518 53.7018C65.0102 53.7072 64.1747 54.5359 64.1612 55.6046C64.1435 56.9785 64.4284 58.2913 65.0224 59.5323C65.3058 60.1249 65.6178 60.7054 65.9487 61.3537C64.0784 61.3537 62.2258 61.3537 60.3352 61.3537C60.3352 62.6611 60.3352 63.9021 60.3352 65.1959C60.4831 65.2027 60.6417 65.2162 60.8004 65.2162C62.4428 65.2176 64.0852 65.1945 65.7276 65.2257C66.7774 65.2447 67.4799 64.8121 67.8515 63.8329C67.8705 63.7813 67.899 63.7325 67.9451 63.6349C68.2584 63.8898 68.5418 64.1272 68.8348 64.355C69.4736 64.8528 70.0988 65.3736 70.7688 65.8266C71.0549 66.0205 71.0522 66.1453 70.8854 66.388C69.7068 68.1077 68.0929 69.0286 65.9962 69.0449C64.2778 69.0585 62.5608 69.0476 60.8425 69.049C60.6811 69.049 60.5183 69.049 60.3271 69.049C60.3271 70.3415 60.3271 71.5838 60.3271 72.9034C60.814 72.9034 61.3077 72.8654 61.7932 72.9115C62.5364 72.9821 63.2973 73.0309 64.0093 73.2302C65.4971 73.648 66.5821 74.6217 67.2995 75.9793C68.8076 78.8342 67.6698 82.3211 64.7905 83.7777C63.9238 84.2158 63.0084 84.3894 62.0509 84.4043C61.4948 84.4124 60.9374 84.4056 60.3393 84.4056C60.3393 85.6818 60.3393 86.935 60.3393 88.2546C60.9713 88.2546 61.5992 88.2397 62.2272 88.2573C63.2566 88.2872 64.0554 89.0236 64.1463 90.0001C64.2439 91.0444 63.3949 92.0304 62.3343 92.0724C61.6752 92.0982 61.0147 92.0765 60.2973 92.0765C60.2973 92.7194 60.304 93.3175 60.2959 93.9156C60.2756 95.3667 59.078 96.2266 57.7001 95.7844C57.026 95.5688 56.4971 94.8364 56.4767 94.0498C56.4605 93.4192 56.474 92.7872 56.474 92.0819C55.9668 92.0819 55.4894 92.1158 55.0188 92.0738C54.2905 92.0087 53.5473 91.9666 52.8461 91.7822C51.4343 91.4092 50.3845 90.5168 49.6291 89.2745C48.852 87.9956 48.6024 86.6 48.9225 85.1583C49.3023 83.4413 50.2692 82.1122 51.8533 81.2673C52.7647 80.7818 53.7344 80.5865 54.7543 80.5797C55.3077 80.5756 55.861 80.5783 56.4428 80.5783C56.4428 79.2858 56.4428 78.0422 56.4428 76.7429C56.2882 76.7348 56.1295 76.7212 55.9709 76.7212C54.2688 76.7198 52.5654 76.7266 50.8633 76.7185C48.8181 76.709 47.1811 75.8898 45.9781 74.2217C44.55 72.2429 44.6897 69.2483 46.248 67.3781C47.4808 65.8984 49.0527 65.2271 50.9406 65.2176C52.5979 65.2095 54.2552 65.2162 55.9126 65.2162C56.0767 65.2162 56.2408 65.2162 56.4388 65.2162C56.4388 63.9455 56.4388 62.7045 56.4388 61.3808C55.5111 61.3808 54.5861 61.3808 53.6598 61.3808C52.7295 61.3808 51.7977 61.3808 50.7724 61.3808C50.9881 60.9997 51.1603 60.6959 51.3312 60.3921C52.1422 58.9531 52.5884 57.4097 52.6196 55.7565C52.6413 54.5969 51.8303 53.7113 50.7372 53.7059C49.5993 53.6991 48.8072 54.643 48.7855 55.6534C48.7421 57.7244 47.6924 59.3058 46.2778 60.7257C45.7747 61.2303 45.2688 61.4283 44.5717 61.3944C43.522 61.3428 42.4682 61.3808 41.3072 61.3808C41.8416 60.8804 42.3109 60.4613 42.7584 60.0191C44.7141 58.0865 46.1978 55.8297 47.3113 53.3234C47.4456 53.021 47.592 52.724 47.7005 52.412C48.041 51.4342 47.5893 50.4143 46.6549 50.0183C45.7055 49.6168 44.6639 50.025 44.1811 50.9663C43.6074 52.0865 43.0839 53.2407 42.4194 54.3053C40.6508 57.1412 38.2625 59.299 35.1296 60.5399C33.7856 61.0729 32.3805 61.4093 30.9103 61.3835C29.8864 61.3659 28.8611 61.3944 27.8371 61.3754C26.5731 61.3523 25.6848 60.4789 25.7743 59.3193C25.8421 58.4296 26.4144 57.8858 27.1983 57.5684C30.0532 56.4129 32.4361 54.6335 34.3755 52.2425C35.6979 50.6137 36.6689 48.7624 37.7471 46.9803C38.432 45.8492 39.1101 44.7222 40.0731 43.7931C41.0631 42.8384 42.2444 42.342 43.6034 42.1738C45.8479 41.8944 47.8375 42.6064 49.6386 43.8162C51.8276 45.2864 53.9297 46.8867 56.0685 48.4301C56.1729 48.5047 56.2787 48.5766 56.4415 48.6892C56.455 48.4884 56.47 48.3609 56.47 48.2321C56.4713 46.153 56.4659 44.0725 56.4767 41.9934C56.4781 41.7045 56.4089 41.5499 56.1228 41.4184C54.0409 40.4582 52.8271 38.8347 52.6617 36.5427C52.4704 33.8791 54.1549 31.4175 56.7588 30.681C57.0884 30.5875 57.4207 30.5007 57.7516 30.4112C58.1707 30.4084 58.5938 30.4084 59.0156 30.4084ZM56.4293 72.8912C56.4293 71.6136 56.4293 70.351 56.4293 69.0639C54.4153 69.0639 52.4311 69.011 50.4523 69.0856C49.4379 69.1236 48.7462 70.0838 48.7977 71.0996C48.8452 72.0164 49.6481 72.8695 50.5717 72.883C52.5125 72.9102 54.4519 72.8912 56.4293 72.8912ZM60.3108 80.5566C61.0608 80.5566 61.7728 80.6204 62.4672 80.5404C63.342 80.44 63.9035 79.8717 64.1015 79.0227C64.2724 78.2917 64.0106 77.6611 63.4288 77.185C62.4781 76.4065 61.3714 76.8188 60.3095 76.7158C60.3108 78.03 60.3108 79.2628 60.3108 80.5566ZM56.4428 84.4151C55.7091 84.4151 55.0174 84.3758 54.3312 84.4246C53.4401 84.4884 52.7064 85.2831 52.6332 86.1809C52.5626 87.0408 53.1092 87.9346 53.9718 88.1068C54.7665 88.2655 55.5979 88.2397 56.4428 88.298C56.4428 86.9499 56.4428 85.7103 56.4428 84.4151Z" fill="white"/>
</svg>
