<svg width="116" height="124" viewBox="0 0 116 124" fill="none" xmlns="http://www.w3.org/2000/svg">
<path d="M16.743 18.7C6.38238 24.7018 -3.85563e-06 35.7935 -3.33094e-06 47.7971L-2.08928e-06 76.2029C-1.56458e-06 88.2065 6.38239 99.2982 16.743 105.3L41.2533 119.499C51.6132 125.5 64.3771 125.5 74.7374 119.5L99.2549 105.3C109.617 99.2981 116 88.2057 116 76.2013L116 47.7988C116 35.7943 109.617 24.7019 99.2548 18.7004L74.7374 4.50014C64.3771 -1.50048 51.6132 -1.5 41.2533 4.50139L16.743 18.7Z" fill="#3894FE"/>
<path fill-rule="evenodd" clip-rule="evenodd" d="M48.7777 92.325H49.2293C49.9109 92.068 50.3813 91.5547 50.849 91.0442C50.9983 90.8812 51.1474 90.7186 51.303 90.5646C53.5835 88.3065 55.8502 86.0347 58.117 83.7628L58.1254 83.7543C58.8782 82.9999 59.631 82.2454 60.3843 81.4914C61.6288 80.2458 62.8727 78.9996 64.1165 77.7534C65.9808 75.8855 67.845 74.0177 69.7112 72.1523C71.6381 70.2254 73.5671 68.3006 75.4962 66.3757L75.5014 66.3705C77.0464 64.8289 78.5913 63.2873 80.1352 61.7446C82.9928 58.8897 85.849 56.0335 88.7012 53.1732C88.8293 53.0451 88.9364 52.8954 89.0434 52.7459C89.0928 52.6769 89.1421 52.608 89.1935 52.5412V51.6366C88.9381 51.3668 88.6842 51.0957 88.4304 50.8247C87.8662 50.2224 87.3024 49.6204 86.7224 49.0339C84.9235 47.2148 83.1132 45.4061 81.3032 43.5978L80.5272 42.8224C79.1088 41.4049 77.6889 39.9884 76.269 38.5721C75.4174 37.7226 74.5659 36.8732 73.7148 36.0236L72.3442 34.6548L72.3401 34.6508L72.3388 34.6495C70.9733 33.2857 69.6075 31.9217 68.241 30.5593C67.5412 29.8622 66.8549 29.8622 66.1606 30.5566C64.1486 32.5692 62.1373 34.5826 60.126 36.5959L60.1175 36.6044C58.109 38.6149 56.1006 40.6254 54.0914 42.6352C49.6307 47.0972 45.1701 51.5565 40.7081 56.0159C36.3226 60.3986 31.9371 64.7801 27.5516 69.1615L27.5458 69.1673C26.7985 69.9132 26.7931 70.5655 27.5336 71.3061C28.6907 72.4626 29.8483 73.6191 31.006 74.7755C33.0304 76.7978 35.055 78.8203 37.0774 80.8445C38.6077 82.377 40.1358 83.9116 41.664 85.4461C42.8866 86.6739 44.1092 87.9017 45.3328 89.1284C46.2334 90.0303 47.138 90.9294 48.0548 91.8137C48.1999 91.9532 48.3735 92.0636 48.547 92.174L48.547 92.174C48.6248 92.2235 48.7025 92.2729 48.7777 92.325ZM64.8586 60.0764C65.5082 61.3377 65.9178 62.6573 65.9137 63.6881C65.9354 66.4033 64.5982 68.2722 62.5326 68.7916C60.8862 69.2052 59.3007 68.9272 57.7749 68.2694C55.4815 67.2821 53.6723 65.6994 52.2442 63.6664C51.2162 62.2016 50.5231 60.5959 50.3753 58.8056C50.2004 56.6736 51.0711 54.6922 53.199 53.7971C54.2962 53.3359 55.4544 53.3169 56.6167 53.5516C58.7881 53.991 60.6054 55.0882 62.1976 56.5841C63.2772 57.5972 64.1764 58.7541 64.8586 60.0764ZM80.6221 50.8893C81.1429 51.0927 81.4128 51.5131 81.4711 52.2971C81.4348 52.3541 81.3953 52.4269 81.3509 52.5086C81.236 52.7204 81.0886 52.992 80.8811 53.2044C80.1518 53.948 79.4125 54.682 78.6731 55.416L78.6731 55.4161L78.673 55.4162L78.6728 55.4164L78.6727 55.4165C77.7941 56.2889 76.9153 57.1613 76.0529 58.0502C75.1714 58.9589 74.0159 58.5452 73.7365 57.6555C73.5792 57.1537 73.7202 56.7279 74.0688 56.3753C75.7763 54.6474 77.4878 52.9236 79.2089 51.208C79.6009 50.816 80.0986 50.6845 80.6221 50.8893ZM36.4617 71.4632C36.3553 71.52 36.2489 71.5767 36.147 71.6383C35.5367 71.542 35.0987 71.2437 34.8654 70.7052C34.6281 70.1587 34.8206 69.6962 35.1882 69.3015C35.532 68.9341 35.8903 68.5812 36.2489 68.228L36.2491 68.2278C36.404 68.0753 36.5588 67.9228 36.7126 67.769C37.0529 67.4286 37.394 67.0892 37.7351 66.7497C38.522 65.9665 39.3087 65.1835 40.0856 64.3906C40.7528 63.7084 41.5354 63.5782 42.1077 64.0977C42.6393 64.5791 42.7356 65.3508 42.2474 65.873C41.5977 66.5676 40.924 67.2391 40.2503 67.9106L40.2502 67.9107C39.9887 68.1713 39.7272 68.4319 39.4671 68.6939C39.2717 68.8907 39.0771 69.0883 38.8824 69.2859L38.8821 69.2863L38.8817 69.2866L38.8816 69.2868C38.297 69.8802 37.7124 70.4737 37.1073 71.0443C36.9234 71.217 36.6926 71.3401 36.4617 71.4632ZM87.8218 74.2876C88.3811 74.0985 88.952 73.9056 89.1922 73.2469V73.246C89.1922 72.9452 89.1922 72.6444 89.1962 72.345C89.13 72.1754 89.0626 72.0063 88.9953 71.8373L88.995 71.8367C88.8528 71.4797 88.7107 71.1228 88.5791 70.7622C87.9423 69.0192 87.308 67.2757 86.6737 65.5323C86.2761 64.4391 85.8784 63.3461 85.4801 62.2532C85.3526 61.9038 85.2206 61.5568 85.0971 61.2322C85.0394 61.0806 84.9835 60.9338 84.9309 60.7939L74.9246 70.7839C74.9621 70.7718 75.0003 70.76 75.0387 70.7481L75.0389 70.7481C75.1209 70.7226 75.2041 70.6968 75.2853 70.6673L76.2244 70.3268L76.226 70.3262L76.2276 70.3256C77.4098 69.897 78.5926 69.4681 79.7745 69.0385C80.2478 68.8662 80.6723 68.9774 81.029 69.3029C81.7912 69.9973 81.5104 71.1325 80.4675 71.5258C78.543 72.2527 76.6117 72.9675 74.6777 73.6686L74.613 73.6923L74.5296 73.7234C74.0457 73.9042 73.5429 74.0921 73.0435 73.7243C72.8839 73.6075 72.7418 73.4677 72.6256 73.3535L72.6255 73.3533C72.5798 73.3084 72.5381 73.2674 72.501 73.2333L72.2785 73.4553L72.2704 73.4634L72.2625 73.4712C68.8095 76.9162 65.3668 80.351 61.9332 83.778C61.939 83.7773 61.9472 83.7771 61.957 83.7768C61.9859 83.7759 62.029 83.7746 62.0674 83.7604C62.5441 83.5862 63.0208 83.4122 63.4976 83.2382C64.9253 82.7172 66.3531 82.1961 67.7785 81.6704C68.8517 81.275 69.9237 80.8761 70.9958 80.4772L70.9977 80.4765L70.9995 80.4758L71.0017 80.475L71.0038 80.4743C71.9695 80.1149 72.9353 79.7556 73.902 79.3987C76.2957 78.5131 78.6908 77.6329 81.0873 76.7527C81.7885 76.4956 82.4904 76.24 83.1923 75.9843C84.6343 75.4591 86.0765 74.9338 87.5131 74.3956C87.614 74.3578 87.7175 74.3228 87.8214 74.2877L87.8216 74.2876L87.8218 74.2876ZM38.4689 92.3249C37.8695 92.1214 37.525 91.7024 37.3121 91.107C36.5099 88.8617 35.6963 86.6204 34.8827 84.3789L34.8824 84.3783C34.5392 83.4328 34.196 82.4873 33.8537 81.5415C33.8401 81.5035 33.8469 81.4587 33.8469 81.4587C36.7169 84.3389 39.6012 87.2346 42.5031 90.148L42.5273 90.1722L43.0869 90.734C42.9756 90.7775 42.8583 90.824 42.7366 90.8723C42.422 90.997 42.0774 91.1335 41.7293 91.2616C41.2461 91.4397 40.7612 91.614 40.2763 91.7883C39.901 91.9231 39.5257 92.058 39.1511 92.1947C39.0932 92.2159 39.0395 92.2501 38.986 92.2843L38.9858 92.2844C38.9641 92.2982 38.9424 92.312 38.9205 92.3249H38.4689ZM30.7865 62.1841C31.7964 61.1718 32.8027 60.1632 33.8089 59.1541C33.7995 59.1383 33.7908 59.1224 33.7819 59.1061C33.7779 59.0987 33.7738 59.0912 33.7695 59.0836C33.6306 59.1335 33.4915 59.1832 33.3524 59.2328C33.015 59.3533 32.6776 59.4738 32.3414 59.5976C31.9613 59.738 31.581 59.8777 31.2007 60.0174C30.0597 60.4365 28.9186 60.8555 27.7845 61.2929C27.1253 61.5465 26.8473 62.2016 27.0711 62.8919C27.2259 63.3679 27.3995 63.8381 27.5728 64.3076C27.6227 64.4429 27.6727 64.5781 27.7221 64.7134C27.7531 64.7988 27.7938 64.8804 27.8367 64.9661C27.8557 65.0042 27.8751 65.0431 27.8943 65.0836C28.8638 64.1115 29.8268 63.1462 30.7865 62.1841Z" fill="white"/>
</svg>
