<svg width="116" height="124" viewBox="0 0 116 124" fill="none" xmlns="http://www.w3.org/2000/svg">
<path d="M16.743 18.7C6.38239 24.7018 -4.09303e-08 35.7935 4.83761e-07 47.7971L1.72542e-06 76.2029C2.25011e-06 88.2065 6.38239 99.2982 16.743 105.3L41.2533 119.499C51.6132 125.5 64.3771 125.5 74.7374 119.5L99.2549 105.3C109.617 99.2981 116 88.2057 116 76.2013L116 47.7988C116 35.7943 109.617 24.7019 99.2549 18.7004L74.7374 4.50014C64.3771 -1.50048 51.6132 -1.5 41.2533 4.50139L16.743 18.7Z" fill="#3894FE"/>
<path d="M61.8855 103.264C59.5948 103.264 57.3041 103.264 55.0134 103.264C54.6459 103.21 54.2797 103.142 53.9108 103.103C48.6093 102.529 43.602 100.984 38.9257 98.4347C31.5451 94.4108 25.853 88.6861 21.9619 81.2255C17.6817 73.0175 16.343 64.305 17.8946 55.1979C19.4475 46.0813 23.6681 38.3399 30.4398 32.0415C37.2982 25.6632 45.4397 22.061 54.7598 21.1795C59.2462 20.755 63.696 21.0859 68.0821 22.1478C75.1549 23.8607 81.3447 27.2188 86.653 32.1894C90.4546 35.7495 93.4668 39.8969 95.6937 44.6071C97.5938 48.6256 98.8117 52.8435 99.3257 57.2608C99.4152 58.0365 99.502 58.8123 99.5902 59.5867C99.5902 61.3349 99.5902 63.0831 99.5902 64.8313C99.563 64.9601 99.5291 65.0876 99.5101 65.2178C99.186 67.343 99.0016 69.4994 98.5187 71.588C96.6064 79.8434 92.4767 86.843 86.2299 92.5595C80.0414 98.2232 72.7706 101.668 64.4677 102.912C63.6079 103.042 62.7467 103.148 61.8855 103.264ZM58.9085 60.2526C58.6427 60.2526 58.484 60.2526 58.3253 60.2526C52.9913 60.2526 47.6558 60.2499 42.3217 60.2567C41.8403 60.2567 41.3547 60.273 40.8801 60.3448C40.4813 60.4059 40.3783 60.2825 40.3986 59.9014C40.5152 57.7531 41.6694 56.325 43.5302 55.4054C43.8394 55.2522 43.9479 55.0908 43.9397 54.7599C43.9207 53.9163 43.9194 53.0713 43.9384 52.2278C43.9492 51.7477 43.956 51.2553 44.0632 50.7902C44.7548 47.801 47.0496 45.9389 50.1201 45.9063C52.9831 45.8765 55.8461 45.8928 58.7091 45.9036C60.1874 45.9091 61.5423 46.3322 62.6666 47.3073C63.0274 47.6206 63.3746 47.6912 63.8059 47.6817C64.6196 47.6654 65.4334 47.66 66.2471 47.6844C66.5902 47.6952 66.7869 47.5854 66.97 47.2897C70.2955 41.9149 73.6345 36.547 76.9682 31.1776C77.1472 30.8901 77.3208 30.5985 77.5581 30.2052C65.3913 23.6234 53.1296 23.0511 40.8502 29.4959C28.56 35.9516 20.3277 49.3892 21.4099 64.6278C22.2915 77.0455 28.2372 86.5812 38.4131 93.536C38.4958 93.281 38.5189 93.0979 38.607 92.9555C40.9831 89.116 43.366 85.282 45.7462 81.4452C45.8276 81.3136 45.9022 81.1766 46.0175 80.9786C45.0057 80.9786 44.0876 80.9935 43.1694 80.9745C42.3272 80.9556 41.4714 80.9868 40.6468 80.843C37.9248 80.367 35.82 78.9321 34.4813 76.503C32.9773 73.7743 32.9081 70.9438 34.3851 68.2069C36.0654 65.0903 38.7765 63.5645 42.3299 63.5659C47.032 63.5673 51.7327 63.5632 56.4347 63.5727C56.7412 63.5727 56.9284 63.4913 57.0817 63.216C57.3814 62.6776 57.7245 62.1622 58.0487 61.6387C58.3158 61.2074 58.5817 60.7788 58.9085 60.2526ZM67.0744 54.7395C67.8312 54.7395 68.4876 54.7436 69.1427 54.7382C70.64 54.726 72.0423 55.0447 73.2751 55.9371C74.6354 56.9217 75.4139 58.2264 75.4763 59.9353C75.4899 60.3231 75.3515 60.4004 75.0003 60.3408C74.6598 60.2838 74.3113 60.2608 73.9654 60.2594C70.6359 60.2526 67.305 60.2485 63.9754 60.2648C63.7977 60.2662 63.559 60.4208 63.456 60.5754C62.9637 61.3145 62.508 62.0768 62.0414 62.8322C61.9044 63.0546 61.7729 63.2824 61.6047 63.5618C61.8529 63.5618 62.017 63.5618 62.1811 63.5618C66.0532 63.5618 69.9252 63.5659 73.7986 63.5605C75.7842 63.5578 77.573 64.1572 79.1286 65.367C80.8945 66.7395 82.0242 68.5365 82.3782 70.7648C82.9017 74.0537 81.8669 76.8028 79.3551 78.9605C77.7019 80.3819 75.7286 80.98 73.5532 80.9773C66.125 80.9691 58.6969 80.9759 51.2688 80.9678C50.9176 80.9678 50.7033 81.0573 50.508 81.3746C48.2254 85.0758 45.9239 88.7661 43.6292 92.4605C43.0283 93.4275 42.4316 94.3972 41.8308 95.3683C56.8647 103.263 79.2127 99.8357 90.3718 81.1495C100.944 63.4479 94.5423 42.4588 80.8266 32.5813C77.7195 37.5845 74.6124 42.5863 71.451 47.6762C71.7426 47.6762 71.9189 47.6762 72.0965 47.6762C77.234 47.6762 82.3728 47.6762 87.5102 47.6776C87.7502 47.6776 87.9944 47.6776 88.2303 47.7169C89.1946 47.8742 89.79 48.8562 89.4971 49.7865C89.2434 50.5921 88.7132 50.9543 87.7312 50.957C85.2751 50.9624 82.819 50.9597 80.3628 50.9597C76.8827 50.9597 73.4013 50.9665 69.9212 50.9515C69.54 50.9502 69.3163 51.0709 69.1264 51.3937C68.6788 52.16 68.1974 52.9072 67.7308 53.6627C67.5315 53.9922 67.3307 54.3218 67.0744 54.7395ZM65.7155 73.8909C66.616 73.8855 67.3511 73.1545 67.3538 72.2621C67.3565 71.3873 66.6024 70.6319 65.7168 70.6197C64.8095 70.6075 64.0486 71.3738 64.0636 72.2838C64.0771 73.1898 64.8041 73.8963 65.7155 73.8909ZM75.0979 72.2756C75.1033 71.3398 74.3764 70.6102 73.4487 70.6197C72.5441 70.6292 71.8239 71.3643 71.8307 72.2689C71.8362 73.1775 72.555 73.8896 73.4663 73.8909C74.3886 73.8923 75.0925 73.1952 75.0979 72.2756ZM42.4302 73.8923C43.3525 73.8869 44.0509 73.1721 44.0401 72.2445C44.0292 71.3249 43.3023 70.6061 42.3936 70.6197C41.4849 70.6332 40.7689 71.3697 40.7811 72.2784C40.7919 73.1938 41.5121 73.8977 42.4302 73.8923ZM57.9415 73.8909C58.8502 73.8896 59.5921 73.1599 59.5948 72.2634C59.5975 71.386 58.8326 70.6251 57.9456 70.6197C57.2159 70.6156 56.3045 71.5555 56.3032 72.3109C56.3018 73.1735 57.0478 73.8923 57.9415 73.8909ZM50.2679 73.8923C50.3181 73.8516 50.4998 73.7594 50.6002 73.6115C50.9366 73.1152 51.2295 72.5903 51.5658 72.0953C51.7367 71.843 51.7123 71.6233 51.5713 71.3873C51.1875 70.7472 50.333 70.4637 49.5966 70.7309C48.8764 70.9927 48.4207 71.7725 48.5523 72.5225C48.6852 73.2969 49.3498 73.8787 50.2679 73.8923Z" fill="white"/>
</svg>
