<svg width="116" height="124" viewBox="0 0 116 124" fill="none" xmlns="http://www.w3.org/2000/svg">
<path d="M16.743 18.7C6.38238 24.7018 -3.85563e-06 35.7935 -3.33094e-06 47.7971L-2.08928e-06 76.2029C-1.56458e-06 88.2065 6.38239 99.2982 16.743 105.3L41.2533 119.499C51.6132 125.5 64.3771 125.5 74.7374 119.5L99.2549 105.3C109.617 99.2981 116 88.2057 116 76.2013L116 47.7988C116 35.7943 109.617 24.7019 99.2548 18.7004L74.7374 4.50014C64.3771 -1.50048 51.6132 -1.5 41.2533 4.50139L16.743 18.7Z" fill="#3894FE"/>
<path fill-rule="evenodd" clip-rule="evenodd" d="M61.4576 89.5006C61.6597 90.3876 62.312 90.7551 63.1366 90.9111H63.1426C64.5565 90.9111 65.9718 90.9111 67.3871 90.9138C67.4016 90.8495 67.4204 90.7853 67.4392 90.7213C67.4783 90.5881 67.5173 90.4553 67.5173 90.3225C67.5254 84.5124 67.5254 78.7009 67.5213 72.8908C67.52 72.3334 67.5823 71.8085 68.0245 71.4043C68.5304 70.9432 69.1 70.7669 69.77 70.9866C70.4318 71.205 70.8305 71.6539 70.9458 72.3374C70.9879 72.5883 70.9879 72.8474 70.9879 73.1023C70.9882 74.7352 70.9884 76.3681 70.9886 78.0011V78.0013V78.0015C70.989 82.0882 70.9894 86.1755 70.9933 90.2628C70.9933 90.4118 71.024 90.5615 71.0546 90.711C71.0686 90.7791 71.0826 90.8472 71.0936 90.9151H75.3427C76.7261 90.5585 77.0882 90.0906 77.0882 88.6638V51.7782V51.1612C77.1317 51.1553 77.1671 51.1498 77.1974 51.1451L77.1975 51.1451C77.2512 51.1367 77.2888 51.1308 77.3269 51.13C80.7812 51.0391 83.7433 49.7737 86.1763 47.3325C88.0195 45.484 89.1763 43.2557 89.6483 40.6761C89.9461 39.045 89.9084 37.4031 89.8709 35.7636V35.7636L89.8708 35.7628C89.8622 35.3864 89.8536 35.0101 89.849 34.6341C89.8314 33.2561 88.8142 32.007 87.5339 31.5812C86.1506 31.1201 84.7157 31.5188 83.7677 32.6092C83.1655 33.3022 82.9254 34.1133 82.9078 35.0165C82.8998 35.4214 82.9002 35.8275 82.9005 36.2338C82.9014 37.2756 82.9022 38.318 82.7627 39.3416C82.3952 42.0432 80.1045 44.0057 77.3649 44.1725C77.2035 44.182 76.9973 44.2918 76.8997 44.422C75.0389 46.8863 72.6208 48.3849 69.5218 48.724C66.6221 49.0414 64.0439 48.2656 61.7749 46.4428L61.7563 46.4278C61.2555 46.025 61.2517 46.0219 60.7184 46.4225C57.3373 48.9586 55.6109 52.3316 55.6068 56.5685C55.6041 59.9129 55.6027 63.2588 55.6068 66.6033C55.6095 69.1652 57.3184 70.8727 59.883 70.8849C60.2078 70.8858 60.532 70.8855 60.8708 70.8852H60.8719H60.873C61.0484 70.8851 61.2276 70.8849 61.4128 70.8849V71.4694L61.4127 75.8097V75.8099V75.8101C61.4124 80.1497 61.4122 84.4888 61.4142 88.8279L61.4141 88.8889C61.4136 89.0936 61.4132 89.3033 61.4576 89.5006ZM36.473 89.4802C36.6737 90.3903 37.3356 90.7646 38.1819 90.9111H42.4296C42.4393 90.8448 42.4518 90.7786 42.4642 90.7125C42.4903 90.5744 42.5164 90.4365 42.5164 90.298C42.5197 86.8121 42.52 83.3256 42.5203 79.8393V79.8393V79.8392C42.5205 77.5148 42.5207 75.1905 42.5218 72.8663C42.5232 71.8234 42.9531 71.2036 43.8319 70.9513C44.7989 70.6747 45.8351 71.3501 45.968 72.351C45.9992 72.5883 46.0006 72.8311 46.0006 73.0711C46.0009 74.5092 46.0011 75.9474 46.0012 77.3855C46.0018 81.6978 46.0023 86.0101 46.0073 90.3224C46.0073 90.4568 46.0471 90.5918 46.087 90.7269C46.1051 90.7883 46.1232 90.8497 46.1375 90.9111H50.3866C51.709 90.6507 52.1213 89.8749 52.1185 88.6366C52.0941 77.9088 52.0928 67.181 52.1104 56.4545C52.1185 51.9939 53.742 48.191 56.9359 45.0676C57.1355 44.8726 57.3396 44.6814 57.5642 44.471L57.5643 44.4709C57.6678 44.374 57.7756 44.273 57.8893 44.1657C57.4552 44.1657 57.0303 44.1686 56.6119 44.1715C55.6395 44.1783 54.7023 44.1848 53.7664 44.1535C53.0381 44.129 52.402 44.1887 51.9856 44.8777C51.9529 44.932 51.8966 44.9715 51.8401 45.0111L51.8401 45.0111C51.8077 45.0339 51.7751 45.0568 51.7469 45.0825C48.0241 48.4582 42.4282 48.5043 38.6335 45.2005C38.5196 45.1028 38.2619 45.0513 38.1317 45.1096C33.5218 47.1955 30.9219 50.78 30.648 55.8157C30.4933 58.6555 30.538 61.5064 30.5828 64.3563C30.5965 65.2303 30.6102 66.1041 30.6181 66.9776C30.629 68.1019 31.1145 69.0702 31.9662 69.8351C32.7664 70.554 33.7104 70.8794 34.775 70.8835C35.1292 70.8844 35.4834 70.8841 35.8478 70.8838H35.8484H35.8491H35.8547H35.8604C36.043 70.8837 36.2283 70.8835 36.4174 70.8835V71.5874V71.5965C36.4174 77.3181 36.4174 83.0411 36.4201 88.7628C36.4201 89.0028 36.4215 89.2483 36.473 89.4802ZM75.3414 38.3421C75.3414 42.1843 72.2057 45.3267 68.3703 45.3267C64.5362 45.3267 61.4087 42.1843 61.4115 38.3339C61.4142 34.4863 64.5403 31.3819 68.4001 31.3927C72.2288 31.4022 75.3414 34.5188 75.3414 38.3421ZM38.7407 37.7738C38.742 41.2607 41.6335 44.1589 45.119 44.1657C48.6168 44.1725 51.515 41.3 51.5313 37.8091C51.549 34.2869 48.6832 31.4035 45.1543 31.3941C41.6254 31.3846 38.7393 34.2544 38.7407 37.7738Z" fill="white"/>
</svg>
